<svg width="563" height="333" viewBox="0 0 563 333" fill="none" xmlns="http://www.w3.org/2000/svg">
<mask id="path-1-inside-1_376_702" fill="white">
<path d="M0 28C0 12.536 12.536 0 28 0H535C550.464 0 563 12.536 563 28V305C563 320.464 550.464 333 535 333H28C12.536 333 0 320.464 0 305V28Z"/>
</mask>
<path d="M0 28C0 12.536 12.536 0 28 0H535C550.464 0 563 12.536 563 28V305C563 320.464 550.464 333 535 333H28C12.536 333 0 320.464 0 305V28Z" fill="white"/>
<path d="M28 0V0.46508H535V0V-0.46508H28V0ZM563 28H562.535V305H563H563.465V28H563ZM535 333V332.535H28V333V333.465H535V333ZM0 305H0.46508V28H0H-0.46508V305H0ZM28 333V332.535C12.7929 332.535 0.46508 320.207 0.46508 305H0H-0.46508C-0.46508 320.721 12.2792 333.465 28 333.465V333ZM563 305H562.535C562.535 320.207 550.207 332.535 535 332.535V333V333.465C550.721 333.465 563.465 320.721 563.465 305H563ZM535 0V0.46508C550.207 0.46508 562.535 12.7929 562.535 28H563H563.465C563.465 12.2792 550.721 -0.46508 535 -0.46508V0ZM28 0V-0.46508C12.2792 -0.46508 -0.46508 12.2792 -0.46508 28H0H0.46508C0.46508 12.7929 12.7929 0.46508 28 0.46508V0Z" fill="black" fill-opacity="0.1" mask="url(#path-1-inside-1_376_702)"/>
<rect x="27.751" y="27.751" width="509" height="279.331" rx="13.5" fill="#F6FBF4"/>
<rect x="27.751" y="27.751" width="509" height="279.331" rx="13.5" stroke="#E7E7E7"/>
<g filter="url(#filter0_dd_376_702)">
<path d="M51.251 58.6224C51.251 53.999 54.999 50.251 59.6224 50.251H504.88C509.503 50.251 513.251 53.999 513.251 58.6224V105.88C513.251 110.503 509.503 114.251 504.88 114.251H59.6224C54.999 114.251 51.251 110.503 51.251 105.88V58.6224Z" fill="white" shape-rendering="crispEdges"/>
<path d="M73.6655 83.0418L65.6265 89.298C65.6265 89.298 65.3593 89.6746 65.5843 90.0012C65.8108 90.3277 66.5733 90.2434 67.8046 89.6902C68.9202 89.1887 71.7952 87.6996 73.1936 86.7684C74.2202 86.084 75.7858 85.1855 76.7515 84.2809C77.1983 83.8637 77.4499 83.5434 77.5936 83.0449C78.0343 81.5152 77.2077 80.8809 77.2077 80.8809L73.6655 83.0418Z" fill="#ED6C31"/>
<path d="M66.108 89.5718C66.9908 89.4171 69.3799 87.9062 70.5971 87.2078C71.8143 86.5093 76.0502 83.9453 76.6189 82.9218C76.9361 82.35 77.0893 81.2984 76.6033 80.6328C76.1174 79.9671 75.1924 79.4484 73.9252 80.064C72.7564 80.6328 70.4518 83.7015 69.2986 84.9828C67.7346 86.7218 66.3424 88.3562 65.7783 89.0671C65.5861 89.3078 65.5596 89.4328 65.5596 89.4328C65.5596 89.4328 65.7674 89.6328 66.108 89.5718Z" fill="#FF8D02"/>
<path d="M77.6249 78.6223C77.5843 78.8973 77.3109 79.1488 76.8296 79.5801C76.1968 80.1488 75.9374 80.116 75.8234 80.4082C75.7531 80.591 75.8968 80.9816 76.2781 81.3988C76.6187 81.7723 76.9296 81.8926 77.0577 81.8691C77.3687 81.8145 77.5452 81.3988 78.1937 80.8629C78.6749 80.466 78.8437 80.327 79.0859 80.3441C79.3296 80.3598 79.5374 80.5895 79.7999 80.8629C80.189 81.2691 80.9499 81.6348 81.739 81.3707C82.6781 81.0551 82.7156 80.1832 82.8124 80.0863C82.9093 79.9895 83.6296 80.0035 84.0031 79.5645C84.3765 79.127 84.4843 78.066 84.3218 77.7738C84.1593 77.4816 76.6499 75.3926 76.6499 75.3926C76.6499 75.3926 76.3312 76.3129 76.5687 76.9832C76.9437 78.0379 77.6999 78.1082 77.6249 78.6223Z" fill="#2F7C31"/>
<path d="M72.3502 82.6799C72.6846 82.983 73.0315 82.7455 73.2596 82.5174C73.4643 82.3127 73.9409 81.8517 74.1518 81.7064C74.3627 81.5611 74.7846 81.2361 75.0612 81.0252C75.3377 80.8142 75.3065 80.1064 74.6877 80.2142C74.3143 80.2799 73.8924 80.6205 73.4221 81.0095C73.0502 81.3174 72.6112 81.7892 72.4315 82.0314C72.2534 82.2736 72.1721 82.5174 72.3502 82.6799ZM70.933 84.2252C70.7034 83.9955 70.483 84.1517 70.1705 84.4924C69.858 84.833 69.8205 85.0689 70.0049 85.2455C70.2627 85.4939 70.5377 85.1814 70.758 84.933C70.9784 84.6845 71.1909 84.483 70.933 84.2252Z" fill="#FFA726"/>
<path d="M74.2889 81.9532C74.1217 82.1001 74.1342 82.3548 74.328 82.5735C74.5639 82.8392 74.7905 83.0657 74.9889 83.2345C75.1858 83.4017 75.442 83.3235 75.5311 83.2048C75.653 83.0423 75.6295 82.8298 75.453 82.6423C75.303 82.4845 74.9701 82.1095 74.7733 81.9626C74.6436 81.8673 74.4467 81.8157 74.2889 81.9532ZM71.5092 83.2063C71.267 83.4173 71.4014 83.7485 71.578 84.0048C71.7561 84.261 72.0405 84.5954 72.367 84.3985C72.6936 84.2017 72.4061 83.6595 72.2592 83.4423C72.1108 83.2251 71.8139 82.9392 71.5092 83.2063ZM70.0155 85.8735C69.7983 86.111 69.9576 86.3845 70.2123 86.5735C70.478 86.7704 70.8139 86.8892 70.9811 86.672C71.1483 86.4548 70.9311 86.1392 70.7248 85.9923C70.5186 85.8438 70.2233 85.647 70.0155 85.8735ZM67.3201 87.5517C67.0592 87.7501 67.242 88.1235 67.3701 88.2813C67.4983 88.4392 67.7342 88.6563 67.9608 88.4595C68.1811 88.2673 68.0545 87.9704 67.9311 87.7595C67.7639 87.4735 67.4873 87.4235 67.3201 87.5517Z" fill="#ED6C31"/>
<path d="M78.8109 74.5392C78.9296 74.5189 80.0859 73.1548 81.839 74.0782C83.5312 74.9689 82.7655 76.4048 82.828 76.4954C82.8905 76.5861 83.6359 76.5579 84.0515 77.1814C84.4968 77.8501 84.364 78.2204 84.364 78.2204C84.364 78.2204 84.203 78.8454 83.4515 78.9939C82.9765 79.0876 82.4484 78.8736 82.2999 78.9486C82.1515 79.0236 82.1874 79.7157 81.3265 79.9829C80.7796 80.1532 79.678 79.9282 78.9593 79.2454C78.2296 78.5532 78.478 77.822 78.0296 77.4689C77.4062 76.9782 76.1218 76.2845 76.7421 75.1736C77.4546 73.897 78.6937 74.5595 78.8109 74.5392Z" fill="#709921"/>
<path d="M97.6959 78.1855L94.9467 68.4442H96.8445L98.5997 75.6028H98.69L100.564 68.4442H102.291L104.17 75.6075H104.255L106.01 68.4442H107.908L105.159 78.1855H103.418L101.468 71.3505H101.392L99.4368 78.1855H97.6959ZM111.235 78.3282C110.522 78.3282 109.903 78.1713 109.38 77.8573C108.857 77.5434 108.451 77.1042 108.163 76.5398C107.877 75.9754 107.734 75.3158 107.734 74.5611C107.734 73.8064 107.877 73.1452 108.163 72.5776C108.451 72.01 108.857 71.5693 109.38 71.2553C109.903 70.9414 110.522 70.7844 111.235 70.7844C111.949 70.7844 112.567 70.9414 113.09 71.2553C113.614 71.5693 114.018 72.01 114.303 72.5776C114.592 73.1452 114.736 73.8064 114.736 74.5611C114.736 75.3158 114.592 75.9754 114.303 76.5398C114.018 77.1042 113.614 77.5434 113.09 77.8573C112.567 78.1713 111.949 78.3282 111.235 78.3282ZM111.245 76.9489C111.632 76.9489 111.955 76.8426 112.215 76.6302C112.475 76.4145 112.669 76.126 112.795 75.7645C112.925 75.403 112.99 75.0003 112.99 74.5563C112.99 74.1092 112.925 73.7049 112.795 73.3434C112.669 72.9788 112.475 72.6886 112.215 72.473C111.955 72.2574 111.632 72.1496 111.245 72.1496C110.848 72.1496 110.519 72.2574 110.255 72.473C109.995 72.6886 109.8 72.9788 109.67 73.3434C109.544 73.7049 109.48 74.1092 109.48 74.5563C109.48 75.0003 109.544 75.403 109.67 75.7645C109.8 76.126 109.995 76.4145 110.255 76.6302C110.519 76.8426 110.848 76.9489 111.245 76.9489ZM115.936 78.1855V70.8796H117.605V72.0972H117.682C117.815 71.6755 118.043 71.3505 118.366 71.1222C118.693 70.8907 119.066 70.7749 119.484 70.7749C119.579 70.7749 119.686 70.7797 119.803 70.7892C119.923 70.7955 120.023 70.8066 120.103 70.8225V72.4064C120.03 72.381 119.914 72.3588 119.755 72.3398C119.6 72.3176 119.449 72.3065 119.303 72.3065C118.99 72.3065 118.707 72.3747 118.457 72.5111C118.209 72.6442 118.014 72.8297 117.872 73.0676C117.729 73.3054 117.658 73.5797 117.658 73.8904V78.1855H115.936ZM125.026 70.8796V72.2114H120.826V70.8796H125.026ZM121.862 69.1292H123.584V75.988C123.584 76.2195 123.619 76.3971 123.689 76.5208C123.762 76.6413 123.857 76.7237 123.974 76.7681C124.092 76.8125 124.222 76.8347 124.364 76.8347C124.472 76.8347 124.57 76.8268 124.659 76.8109C124.751 76.7951 124.821 76.7808 124.869 76.7681L125.159 78.1142C125.067 78.1459 124.935 78.1808 124.764 78.2188C124.596 78.2569 124.39 78.2791 124.146 78.2854C123.714 78.2981 123.326 78.2331 122.98 78.0904C122.635 77.9446 122.36 77.7194 122.157 77.415C121.958 77.1106 121.859 76.7301 121.862 76.2734V69.1292ZM129.36 78.3282C128.627 78.3282 127.995 78.176 127.462 77.8716C126.932 77.564 126.525 77.1296 126.24 76.5683C125.954 76.0039 125.812 75.3396 125.812 74.5754C125.812 73.8238 125.954 73.1643 126.24 72.5967C126.528 72.0259 126.931 71.5819 127.448 71.2648C127.965 70.9446 128.572 70.7844 129.27 70.7844C129.72 70.7844 130.145 70.8574 130.544 71.0032C130.947 71.1459 131.302 71.3679 131.61 71.6692C131.92 71.9704 132.165 72.3541 132.342 72.8202C132.52 73.2832 132.609 73.8349 132.609 74.4755V75.0035H126.62V73.8429H130.958C130.955 73.5131 130.884 73.2198 130.744 72.9629C130.605 72.7029 130.409 72.4984 130.159 72.3493C129.912 72.2003 129.623 72.1258 129.293 72.1258C128.941 72.1258 128.632 72.2114 128.366 72.3826C128.099 72.5507 127.892 72.7727 127.743 73.0485C127.597 73.3212 127.522 73.6209 127.519 73.9475V74.9606C127.519 75.3856 127.597 75.7502 127.752 76.0546C127.908 76.3559 128.125 76.5874 128.404 76.7491C128.683 76.9076 129.009 76.9869 129.384 76.9869C129.634 76.9869 129.861 76.952 130.064 76.8823C130.267 76.8093 130.443 76.7031 130.592 76.5636C130.741 76.4241 130.853 76.2512 130.93 76.0451L132.537 76.2259C132.436 76.6508 132.242 77.0218 131.957 77.3389C131.675 77.6528 131.313 77.897 130.872 78.0714C130.432 78.2426 129.927 78.3282 129.36 78.3282ZM135.525 68.4442V78.1855H133.804V68.4442H135.525ZM142.809 72.8107L141.239 72.9819C141.195 72.8234 141.117 72.6744 141.006 72.5348C140.898 72.3953 140.752 72.2827 140.569 72.1971C140.385 72.1115 140.16 72.0687 139.893 72.0687C139.535 72.0687 139.234 72.1464 138.989 72.3018C138.748 72.4571 138.63 72.6585 138.633 72.9058C138.63 73.1183 138.707 73.2911 138.866 73.4243C139.027 73.5575 139.294 73.6669 139.665 73.7525L140.911 74.0189C141.602 74.1679 142.116 74.4041 142.452 74.7276C142.791 75.051 142.963 75.4743 142.966 75.9976C142.963 76.4574 142.828 76.8632 142.562 77.2152C142.298 77.564 141.932 77.8367 141.463 78.0333C140.993 78.2299 140.454 78.3282 139.846 78.3282C138.951 78.3282 138.232 78.1412 137.686 77.767C137.141 77.3896 136.816 76.8648 136.711 76.1926L138.39 76.0309C138.466 76.3606 138.628 76.6096 138.875 76.7776C139.123 76.9457 139.444 77.0297 139.841 77.0297C140.25 77.0297 140.578 76.9457 140.825 76.7776C141.076 76.6096 141.201 76.4019 141.201 76.1545C141.201 75.9452 141.12 75.7724 140.959 75.6361C140.8 75.4997 140.553 75.3951 140.217 75.3221L138.97 75.0605C138.27 74.9147 137.751 74.6689 137.415 74.3233C137.079 73.9745 136.912 73.5337 136.916 73.001C136.912 72.5507 137.034 72.1607 137.282 71.8309C137.532 71.4979 137.88 71.2411 138.324 71.0603C138.771 70.8764 139.286 70.7844 139.869 70.7844C140.726 70.7844 141.399 70.9668 141.891 71.3314C142.386 71.6961 142.692 72.1892 142.809 72.8107Z" fill="#0A0A0A"/>
<path d="M98.564 88.9578V97.4814H97.5318V90.0399H97.4819L95.4009 91.4217V90.3729L97.5318 88.9578H98.564ZM104.992 95.1508L104.975 93.9355H105.175L107.972 91.0887H109.187L106.207 94.102H106.124L104.992 95.1508ZM104.076 97.4814V88.9578H105.059V97.4814H104.076ZM108.139 97.4814L105.641 94.3184L106.341 93.6358L109.387 97.4814H108.139ZM112.643 100.012C112.168 100.012 111.76 99.9509 111.419 99.8288C111.078 99.7095 110.793 99.5513 110.566 99.3543C110.341 99.1601 110.162 98.952 110.029 98.73L110.812 98.1806C110.9 98.2972 111.013 98.4304 111.149 98.5802C111.285 98.7328 111.47 98.8646 111.706 98.9756C111.945 99.0893 112.257 99.1462 112.643 99.1462C113.159 99.1462 113.585 99.0214 113.92 98.7716C114.256 98.5219 114.424 98.1307 114.424 97.598V96.2995H114.341C114.269 96.416 114.166 96.5603 114.033 96.7323C113.902 96.9015 113.714 97.0528 113.467 97.1859C113.223 97.3164 112.892 97.3816 112.476 97.3816C111.96 97.3816 111.497 97.2595 111.086 97.0153C110.678 96.7711 110.355 96.416 110.116 95.9499C109.881 95.4837 109.763 94.9177 109.763 94.2518C109.763 93.597 109.878 93.0268 110.108 92.5412C110.338 92.0529 110.659 91.6756 111.07 91.4092C111.48 91.14 111.955 91.0055 112.493 91.0055C112.909 91.0055 113.239 91.0748 113.483 91.2136C113.73 91.3495 113.919 91.5049 114.049 91.6797C114.183 91.8517 114.285 91.9932 114.357 92.1042H114.457V91.0887H115.406V97.6646C115.406 98.2139 115.281 98.6607 115.032 99.0047C114.785 99.3515 114.452 99.6054 114.033 99.7663C113.617 99.93 113.153 100.012 112.643 100.012ZM112.609 96.4992C113.003 96.4992 113.336 96.4091 113.608 96.2287C113.88 96.0484 114.087 95.7889 114.228 95.4504C114.37 95.1119 114.441 94.7068 114.441 94.2351C114.441 93.7746 114.371 93.3681 114.233 93.0157C114.094 92.6633 113.889 92.3872 113.617 92.1875C113.345 91.9877 113.009 91.8878 112.609 91.8878C112.193 91.8878 111.846 91.9932 111.569 92.2041C111.294 92.415 111.088 92.698 110.949 93.0532C110.813 93.4083 110.745 93.8023 110.745 94.2351C110.745 94.6791 110.814 95.0717 110.953 95.413C111.095 95.7515 111.303 96.0178 111.577 96.2121C111.855 96.4035 112.199 96.4992 112.609 96.4992Z" fill="#4A5565"/>
<path d="M461.9 73.5775L461.311 74.8796H453.362L453.844 73.5775H461.9ZM460.764 76.0688L460.116 77.4006H453.362L453.844 76.0688H460.764ZM463.446 70.3253L462.495 72.3587C462.336 72.2477 462.144 72.1268 461.918 71.996C461.696 71.8612 461.44 71.7483 461.151 71.6571C460.865 71.562 460.548 71.5144 460.2 71.5144C459.649 71.5144 459.169 71.6531 458.761 71.9306C458.352 72.2081 458.035 72.6401 457.809 73.2267C457.587 73.8134 457.476 74.5665 457.476 75.4861C457.476 76.4136 457.587 77.1687 457.809 77.7514C458.035 78.3301 458.352 78.7562 458.761 79.0297C459.169 79.2992 459.649 79.434 460.2 79.434C460.548 79.434 460.865 79.3884 461.151 79.2972C461.436 79.2061 461.686 79.0971 461.9 78.9702C462.118 78.8434 462.3 78.7264 462.447 78.6194L463.41 80.6528C462.978 81.0096 462.489 81.2791 461.942 81.4614C461.395 81.6398 460.814 81.729 460.2 81.729C459.161 81.729 458.241 81.4832 457.441 80.9917C456.644 80.4963 456.02 79.7848 455.568 78.8572C455.116 77.9258 454.89 76.802 454.89 75.4861C454.89 74.1741 455.116 73.0504 455.568 72.1149C456.02 71.1795 456.644 70.464 457.441 69.9685C458.241 69.4691 459.161 69.2194 460.2 69.2194C460.838 69.2194 461.428 69.3145 461.971 69.5048C462.514 69.695 463.006 69.9685 463.446 70.3253ZM464.98 81.5625V79.7075L469.314 75.6942C469.683 75.3374 469.992 75.0164 470.242 74.731C470.495 74.4456 470.688 74.1662 470.818 73.8927C470.949 73.6152 471.015 73.3159 471.015 72.9949C471.015 72.6381 470.933 72.3309 470.771 72.0733C470.608 71.8117 470.386 71.6115 470.105 71.4728C469.824 71.3301 469.504 71.2587 469.148 71.2587C468.775 71.2587 468.45 71.3341 468.173 71.4847C467.895 71.6353 467.681 71.8513 467.531 72.1328C467.38 72.4142 467.305 72.7491 467.305 73.1376H464.861C464.861 72.3408 465.041 71.6492 465.402 71.0625C465.763 70.4759 466.268 70.0221 466.918 69.701C467.568 69.3799 468.317 69.2194 469.166 69.2194C470.038 69.2194 470.797 69.374 471.443 69.6832C472.093 69.9884 472.598 70.4125 472.959 70.9555C473.32 71.4986 473.5 72.1209 473.5 72.8224C473.5 73.2822 473.409 73.7361 473.226 74.184C473.048 74.6319 472.729 75.1293 472.269 75.6763C471.809 76.2194 471.161 76.8714 470.325 77.6324L468.547 79.3745V79.4578H473.66V81.5625H464.98ZM476.654 81.7171C476.262 81.7171 475.925 81.5784 475.643 81.3009C475.366 81.0195 475.227 80.6825 475.227 80.2901C475.227 79.9017 475.366 79.5687 475.643 79.2913C475.925 79.0138 476.262 78.8751 476.654 78.8751C477.035 78.8751 477.368 79.0138 477.653 79.2913C477.938 79.5687 478.081 79.9017 478.081 80.2901C478.081 80.5517 478.014 80.7916 477.879 81.0096C477.748 81.2236 477.576 81.396 477.362 81.5268C477.148 81.6537 476.912 81.7171 476.654 81.7171ZM479.761 81.5625V79.7075L484.095 75.6942C484.464 75.3374 484.773 75.0164 485.023 74.731C485.276 74.4456 485.468 74.1662 485.599 73.8927C485.73 73.6152 485.795 73.3159 485.795 72.9949C485.795 72.6381 485.714 72.3309 485.552 72.0733C485.389 71.8117 485.167 71.6115 484.886 71.4728C484.604 71.3301 484.285 71.2587 483.929 71.2587C483.556 71.2587 483.231 71.3341 482.953 71.4847C482.676 71.6353 482.462 71.8513 482.311 72.1328C482.161 72.4142 482.085 72.7491 482.085 73.1376H479.642C479.642 72.3408 479.822 71.6492 480.183 71.0625C480.543 70.4759 481.049 70.0221 481.699 69.701C482.349 69.3799 483.098 69.2194 483.946 69.2194C484.818 69.2194 485.577 69.374 486.224 69.6832C486.874 69.9884 487.379 70.4125 487.74 70.9555C488.1 71.4986 488.281 72.1209 488.281 72.8224C488.281 73.2822 488.19 73.7361 488.007 74.184C487.829 74.6319 487.51 75.1293 487.05 75.6763C486.59 76.2194 485.942 76.8714 485.106 77.6324L483.328 79.3745V79.4578H488.441V81.5625H479.761ZM494.705 81.8301C493.682 81.8261 492.802 81.5744 492.065 81.075C491.332 80.5755 490.767 79.8521 490.371 78.9048C489.978 77.9575 489.784 76.8179 489.788 75.4861C489.788 74.1582 489.984 73.0266 490.377 72.0911C490.773 71.1557 491.338 70.4442 492.071 69.9567C492.808 69.4652 493.686 69.2194 494.705 69.2194C495.724 69.2194 496.6 69.4652 497.333 69.9567C498.07 70.4482 498.637 71.1616 499.033 72.0971C499.43 73.0286 499.626 74.1582 499.622 75.4861C499.622 76.8219 499.424 77.9634 499.027 78.9108C498.635 79.8581 498.072 80.5815 497.339 81.0809C496.606 81.5803 495.728 81.8301 494.705 81.8301ZM494.705 79.6956C495.403 79.6956 495.959 79.3448 496.376 78.6432C496.792 77.9416 496.998 76.8892 496.994 75.4861C496.994 74.5625 496.899 73.7936 496.709 73.1792C496.522 72.5648 496.257 72.103 495.912 71.7939C495.571 71.4847 495.169 71.3301 494.705 71.3301C494.011 71.3301 493.456 71.6769 493.04 72.3706C492.624 73.0642 492.414 74.1027 492.41 75.4861C492.41 76.4215 492.503 77.2024 492.689 77.8287C492.88 78.451 493.147 78.9187 493.492 79.2318C493.837 79.541 494.241 79.6956 494.705 79.6956Z" fill="#6FAF3A"/>
<path d="M435.675 97.8554C435.18 97.8554 434.746 97.7376 434.373 97.5022C434.002 97.2668 433.711 96.9374 433.502 96.514C433.295 96.0907 433.192 95.596 433.192 95.03C433.192 94.4592 433.295 93.961 433.502 93.5353C433.711 93.1096 434.002 92.779 434.373 92.5436C434.746 92.3081 435.18 92.1904 435.675 92.1904C436.169 92.1904 436.602 92.3081 436.973 92.5436C437.347 92.779 437.637 93.1096 437.844 93.5353C438.053 93.961 438.158 94.4592 438.158 95.03C438.158 95.596 438.053 96.0907 437.844 96.514C437.637 96.9374 437.347 97.2668 436.973 97.5022C436.602 97.7376 436.169 97.8554 435.675 97.8554ZM435.675 97.0991C436.05 97.0991 436.36 97.0028 436.602 96.8101C436.845 96.6175 437.024 96.3642 437.141 96.0503C437.257 95.7363 437.316 95.3963 437.316 95.03C437.316 94.6638 437.257 94.3225 437.141 94.0062C437.024 93.6899 436.845 93.4342 436.602 93.2392C436.36 93.0442 436.05 92.9467 435.675 92.9467C435.299 92.9467 434.99 93.0442 434.747 93.2392C434.505 93.4342 434.325 93.6899 434.208 94.0062C434.092 94.3225 434.034 94.6638 434.034 95.03C434.034 95.3963 434.092 95.7363 434.208 96.0503C434.325 96.3642 434.505 96.6175 434.747 96.8101C434.99 97.0028 435.299 97.0991 435.675 97.0991ZM443.727 92.2617L441.701 97.7412H440.845L438.818 92.2617H439.732L441.244 96.6282H441.301L442.814 92.2617H443.727ZM446.939 97.8554C446.412 97.8554 445.956 97.7388 445.573 97.5058C445.193 97.2703 444.899 96.9421 444.692 96.5212C444.488 96.0978 444.385 95.6055 444.385 95.0443C444.385 94.483 444.488 93.9883 444.692 93.5603C444.899 93.1298 445.187 92.7945 445.555 92.5543C445.926 92.3117 446.359 92.1904 446.854 92.1904C447.139 92.1904 447.421 92.2379 447.699 92.3331C447.978 92.4282 448.231 92.5828 448.459 92.7968C448.687 93.0085 448.869 93.2891 449.005 93.6387C449.141 93.9883 449.208 94.4188 449.208 94.9301V95.2869H444.985V94.5591H448.352C448.352 94.2499 448.29 93.9741 448.167 93.7315C448.045 93.4889 447.872 93.2975 447.646 93.1571C447.422 93.0168 447.158 92.9467 446.854 92.9467C446.519 92.9467 446.228 93.0299 445.983 93.1964C445.741 93.3605 445.554 93.5745 445.423 93.8385C445.293 94.1025 445.227 94.3855 445.227 94.6875V95.1727C445.227 95.5865 445.298 95.9373 445.441 96.2251C445.586 96.5105 445.787 96.7281 446.044 96.8779C446.301 97.0254 446.599 97.0991 446.939 97.0991C447.161 97.0991 447.36 97.0682 447.539 97.0063C447.72 96.9421 447.875 96.847 448.006 96.7209C448.137 96.5925 448.238 96.4332 448.309 96.2429L449.123 96.4712C449.037 96.7471 448.893 96.9897 448.691 97.199C448.489 97.4059 448.239 97.5676 447.942 97.6841C447.645 97.7983 447.31 97.8554 446.939 97.8554ZM450.489 97.7412V92.2617H451.302V93.0894H451.359C451.459 92.8182 451.64 92.5983 451.902 92.4294C452.163 92.2605 452.458 92.1761 452.786 92.1761C452.848 92.1761 452.926 92.1773 453.018 92.1797C453.111 92.1821 453.181 92.1856 453.229 92.1904V93.0466C453.2 93.0394 453.135 93.0287 453.033 93.0144C452.933 92.9978 452.827 92.9895 452.715 92.9895C452.449 92.9895 452.211 93.0454 452.002 93.1571C451.795 93.2665 451.631 93.4187 451.509 93.6138C451.39 93.8064 451.331 94.0264 451.331 94.2737V97.7412H450.489ZM456.867 96.2429V95.5152L460.077 90.4352H460.605V91.5625H460.248L457.823 95.401V95.4581H462.146V96.2429H456.867ZM460.306 97.7412V96.0217V95.6828V90.4352H461.147V97.7412H460.306ZM466.951 95.5009V92.2617H467.793V97.7412H466.951V96.8137H466.894C466.765 97.0919 466.565 97.3286 466.294 97.5236C466.023 97.7162 465.681 97.8126 465.267 97.8126C464.924 97.8126 464.62 97.7376 464.354 97.5878C464.087 97.4356 463.878 97.2073 463.726 96.9029C463.574 96.5961 463.497 96.2096 463.497 95.7435V92.2617H464.339V95.6864C464.339 96.086 464.451 96.4046 464.675 96.6425C464.901 96.8803 465.188 96.9992 465.538 96.9992C465.747 96.9992 465.96 96.9457 466.177 96.8387C466.395 96.7316 466.578 96.5675 466.726 96.3464C466.876 96.1252 466.951 95.8434 466.951 95.5009ZM469.948 97.7983C469.772 97.7983 469.621 97.7353 469.495 97.6092C469.369 97.4832 469.306 97.3322 469.306 97.1562C469.306 96.9802 469.369 96.8292 469.495 96.7031C469.621 96.5771 469.772 96.514 469.948 96.514C470.124 96.514 470.275 96.5771 470.401 96.7031C470.527 96.8292 470.59 96.9802 470.59 97.1562C470.59 97.2727 470.561 97.3797 470.501 97.4772C470.444 97.5747 470.367 97.6532 470.269 97.7127C470.174 97.7697 470.067 97.7983 469.948 97.7983ZM469.948 93.7315C469.772 93.7315 469.621 93.6685 469.495 93.5424C469.369 93.4164 469.306 93.2654 469.306 93.0894C469.306 92.9134 469.369 92.7624 469.495 92.6363C469.621 92.5103 469.772 92.4472 469.948 92.4472C470.124 92.4472 470.275 92.5103 470.401 92.6363C470.527 92.7624 470.59 92.9134 470.59 93.0894C470.59 93.2059 470.561 93.3129 470.501 93.4104C470.444 93.5079 470.367 93.5864 470.269 93.6459C470.174 93.7029 470.067 93.7315 469.948 93.7315ZM479.393 93.018L479.065 93.7315H474.413L474.67 93.018H479.393ZM478.779 94.445L478.451 95.1584H474.413L474.67 94.445H478.779ZM480.235 91.0916L479.892 91.8336C479.74 91.6957 479.579 91.5768 479.411 91.4769C479.242 91.377 479.065 91.2997 478.879 91.245C478.694 91.1903 478.499 91.163 478.294 91.163C477.89 91.163 477.526 91.2748 477.202 91.4983C476.879 91.7219 476.623 92.0513 476.435 92.4865C476.248 92.9217 476.154 93.4556 476.154 94.0882C476.154 94.7208 476.248 95.2548 476.435 95.69C476.623 96.1252 476.879 96.4546 477.202 96.6781C477.526 96.9017 477.89 97.0135 478.294 97.0135C478.503 97.0135 478.701 96.9861 478.886 96.9314C479.074 96.8767 479.249 96.8018 479.411 96.7067C479.575 96.6115 479.726 96.5045 479.864 96.3856L480.22 97.1276C479.971 97.3631 479.678 97.5414 479.343 97.6627C479.007 97.7816 478.658 97.8411 478.294 97.8411C477.709 97.8411 477.19 97.6889 476.739 97.3845C476.289 97.0801 475.936 96.6472 475.679 96.086C475.425 95.5247 475.297 94.8588 475.297 94.0882C475.297 93.3177 475.425 92.6518 475.679 92.0905C475.936 91.5292 476.289 91.0964 476.739 90.792C477.19 90.4876 477.709 90.3354 478.294 90.3354C478.672 90.3354 479.025 90.4008 479.353 90.5316C479.684 90.6624 479.978 90.8491 480.235 91.0916ZM484.161 90.4352V97.7412H483.277V91.3628H483.234L481.45 92.5471V91.6481L483.277 90.4352H484.161ZM486.459 97.7983C486.283 97.7983 486.132 97.7353 486.006 97.6092C485.88 97.4832 485.817 97.3322 485.817 97.1562C485.817 96.9802 485.88 96.8292 486.006 96.7031C486.132 96.5771 486.283 96.514 486.459 96.514C486.635 96.514 486.786 96.5771 486.912 96.7031C487.038 96.8292 487.101 96.9802 487.101 97.1562C487.101 97.2727 487.071 97.3797 487.012 97.4772C486.955 97.5747 486.877 97.6532 486.78 97.7127C486.685 97.7697 486.578 97.7983 486.459 97.7983ZM490.855 90.3354C491.154 90.3377 491.454 90.3948 491.754 90.5066C492.053 90.6184 492.327 90.8039 492.574 91.0631C492.822 91.3199 493.02 91.6707 493.17 92.1155C493.32 92.5602 493.395 93.1179 493.395 93.7886C493.395 94.4378 493.333 95.0146 493.209 95.5187C493.088 96.0205 492.912 96.4439 492.681 96.7887C492.453 97.1336 492.175 97.3952 491.846 97.5735C491.521 97.7519 491.152 97.8411 490.741 97.8411C490.331 97.8411 489.966 97.7602 489.645 97.5985C489.327 97.4344 489.065 97.2073 488.861 96.9171C488.658 96.6246 488.529 96.2857 488.472 95.9004H489.342C489.421 96.2358 489.576 96.5128 489.809 96.7316C490.045 96.9481 490.355 97.0563 490.741 97.0563C491.304 97.0563 491.749 96.8101 492.075 96.3178C492.403 95.8255 492.567 95.1299 492.567 94.2309H492.51C492.377 94.4307 492.219 94.6031 492.035 94.7482C491.852 94.8933 491.649 95.005 491.425 95.0835C491.202 95.162 490.964 95.2012 490.712 95.2012C490.293 95.2012 489.909 95.0978 489.56 94.8909C489.213 94.6816 488.934 94.395 488.725 94.0311C488.518 93.6649 488.415 93.2463 488.415 92.7754C488.415 92.3283 488.515 91.9193 488.714 91.5483C488.916 91.1749 489.199 90.8776 489.563 90.6564C489.93 90.4352 490.36 90.3282 490.855 90.3354ZM490.855 91.1202C490.555 91.1202 490.285 91.1951 490.045 91.3449C489.807 91.4924 489.618 91.6921 489.478 91.9442C489.34 92.194 489.271 92.471 489.271 92.7754C489.271 93.0798 489.337 93.3569 489.471 93.6066C489.606 93.854 489.79 94.0514 490.024 94.1988C490.259 94.3439 490.527 94.4164 490.826 94.4164C491.052 94.4164 491.263 94.3724 491.458 94.2844C491.653 94.1941 491.823 94.0716 491.968 93.917C492.115 93.76 492.231 93.5828 492.314 93.3855C492.397 93.1857 492.439 92.9776 492.439 92.7612C492.439 92.4758 492.37 92.2082 492.232 91.9585C492.096 91.7088 491.908 91.5066 491.668 91.3521C491.43 91.1975 491.159 91.1202 490.855 91.1202ZM497.181 97.8411C496.643 97.8411 496.185 97.6948 495.807 97.4023C495.429 97.1074 495.14 96.6805 494.94 96.1216C494.74 95.5604 494.641 94.8826 494.641 94.0882C494.641 93.2986 494.74 92.6244 494.94 92.0655C495.142 91.5043 495.433 91.0762 495.811 90.7813C496.191 90.484 496.648 90.3354 497.181 90.3354C497.713 90.3354 498.169 90.484 498.547 90.7813C498.927 91.0762 499.218 91.5043 499.417 92.0655C499.619 92.6244 499.721 93.2986 499.721 94.0882C499.721 94.8826 499.621 95.5604 499.421 96.1216C499.221 96.6805 498.932 97.1074 498.554 97.4023C498.176 97.6948 497.718 97.8411 497.181 97.8411ZM497.181 97.0563C497.713 97.0563 498.127 96.7994 498.422 96.2857C498.717 95.772 498.864 95.0395 498.864 94.0882C498.864 93.4556 498.797 92.9169 498.661 92.4722C498.528 92.0275 498.335 91.6886 498.083 91.4555C497.833 91.2224 497.533 91.1059 497.181 91.1059C496.653 91.1059 496.24 91.3663 495.943 91.8872C495.645 92.4056 495.497 93.1393 495.497 94.0882C495.497 94.7208 495.563 95.2583 495.697 95.7007C495.83 96.143 496.021 96.4796 496.271 96.7102C496.523 96.9409 496.826 97.0563 497.181 97.0563Z" fill="#6A7282"/>
</g>
<g filter="url(#filter1_dd_376_702)">
<path d="M51.251 136.015C51.251 131.392 54.999 127.644 59.6224 127.644H504.88C509.503 127.644 513.251 131.392 513.251 136.015V176.272C513.251 180.896 509.503 184.644 504.88 184.644H59.6224C54.999 184.644 51.251 180.896 51.251 176.272V136.015Z" fill="white" shape-rendering="crispEdges"/>
<path d="M65.58 154.594V146.07H68.6182C69.2813 146.07 69.8307 146.191 70.2663 146.432C70.7019 146.674 71.028 147.004 71.2444 147.423C71.4608 147.839 71.569 148.308 71.569 148.829C71.569 149.354 71.4594 149.826 71.2402 150.245C71.0238 150.661 70.6964 150.991 70.258 151.235C69.8224 151.476 69.2744 151.597 68.614 151.597H66.5247V150.507H68.4975C68.9165 150.507 69.2564 150.435 69.5172 150.29C69.778 150.143 69.9694 149.943 70.0915 149.691C70.2136 149.439 70.2746 149.151 70.2746 148.829C70.2746 148.508 70.2136 148.222 70.0915 147.972C69.9694 147.722 69.7766 147.527 69.513 147.385C69.2522 147.244 68.9081 147.173 68.4809 147.173H66.866V154.594H65.58ZM72.8509 154.594V148.201H74.0537V149.217H74.1203C74.2368 148.872 74.4421 148.602 74.7362 148.405C75.0331 148.205 75.3689 148.105 75.7434 148.105C75.8211 148.105 75.9127 148.108 76.0181 148.114C76.1263 148.119 76.2109 148.126 76.272 148.134V149.325C76.222 149.311 76.1333 149.296 76.0056 149.279C75.878 149.26 75.7504 149.25 75.6227 149.25C75.3286 149.25 75.0664 149.312 74.8361 149.437C74.6086 149.559 74.4283 149.73 74.2951 149.949C74.1619 150.165 74.0953 150.412 74.0953 150.69V154.594H72.8509ZM77.223 154.594V148.201H78.4674V154.594H77.223ZM77.8514 147.215C77.635 147.215 77.4491 147.143 77.2937 146.998C77.1411 146.851 77.0648 146.676 77.0648 146.474C77.0648 146.268 77.1411 146.094 77.2937 145.949C77.4491 145.802 77.635 145.729 77.8514 145.729C78.0679 145.729 78.2524 145.802 78.405 145.949C78.5604 146.094 78.6381 146.268 78.6381 146.474C78.6381 146.676 78.5604 146.851 78.405 146.998C78.2524 147.143 78.0679 147.215 77.8514 147.215ZM80.0156 148.201H81.2601V155.01C81.2601 155.437 81.1824 155.798 81.027 156.092C80.8744 156.386 80.6469 156.61 80.3444 156.762C80.0448 156.915 79.6744 156.991 79.2332 156.991C79.1888 156.991 79.1472 156.991 79.1083 156.991C79.0667 156.991 79.0237 156.99 78.9793 156.987V155.917C79.0182 155.917 79.0529 155.917 79.0834 155.917C79.1111 155.917 79.143 155.917 79.1791 155.917C79.4732 155.917 79.6855 155.838 79.8159 155.68C79.9491 155.525 80.0156 155.299 80.0156 155.002V148.201ZM80.6316 147.215C80.4152 147.215 80.2293 147.143 80.0739 146.998C79.9213 146.851 79.845 146.676 79.845 146.474C79.845 146.268 79.9213 146.094 80.0739 145.949C80.2293 145.802 80.4152 145.729 80.6316 145.729C80.848 145.729 81.0325 145.802 81.1852 145.949C81.3405 146.094 81.4182 146.268 81.4182 146.474C81.4182 146.676 81.3405 146.851 81.1852 146.998C81.0325 147.143 80.848 147.215 80.6316 147.215ZM87.5987 149.762L86.4708 149.962C86.4236 149.817 86.3487 149.68 86.2461 149.549C86.1462 149.419 86.0102 149.312 85.8382 149.229C85.6662 149.146 85.4511 149.104 85.1931 149.104C84.8407 149.104 84.5466 149.183 84.3108 149.341C84.0749 149.497 83.957 149.698 83.957 149.945C83.957 150.159 84.0361 150.331 84.1942 150.461C84.3524 150.591 84.6076 150.698 84.96 150.781L85.9755 151.014C86.5638 151.15 87.0021 151.36 87.2907 151.643C87.5793 151.926 87.7235 152.294 87.7235 152.746C87.7235 153.129 87.6126 153.47 87.3906 153.77C87.1714 154.067 86.8648 154.3 86.4708 154.469C86.0796 154.638 85.6259 154.723 85.1099 154.723C84.394 154.723 83.8099 154.57 83.3577 154.265C82.9054 153.957 82.628 153.52 82.5253 152.954L83.7281 152.771C83.803 153.084 83.957 153.322 84.1901 153.483C84.4231 153.641 84.727 153.72 85.1015 153.72C85.5094 153.72 85.8354 153.635 86.0796 153.466C86.3238 153.294 86.4458 153.084 86.4458 152.837C86.4458 152.638 86.3709 152.47 86.2211 152.334C86.074 152.198 85.8479 152.095 85.5427 152.026L84.4606 151.789C83.864 151.653 83.4229 151.436 83.1371 151.139C82.8541 150.842 82.7126 150.467 82.7126 150.011C82.7126 149.634 82.818 149.304 83.0289 149.021C83.2398 148.738 83.5311 148.517 83.9029 148.359C84.2747 148.198 84.7006 148.118 85.1806 148.118C85.8715 148.118 86.4153 148.268 86.8121 148.567C87.2089 148.864 87.4711 149.262 87.5987 149.762ZM94.3348 154.719C93.8187 154.719 93.3581 154.587 92.953 154.323C92.5507 154.057 92.2344 153.678 92.0041 153.187C91.7766 152.693 91.6628 152.101 91.6628 151.41C91.6628 150.719 91.778 150.128 92.0083 149.637C92.2413 149.146 92.5604 148.77 92.9655 148.509C93.3706 148.248 93.8298 148.118 94.3431 148.118C94.7399 148.118 95.059 148.184 95.3003 148.318C95.5445 148.448 95.7332 148.601 95.8664 148.775C96.0023 148.95 96.1078 149.104 96.1827 149.237H96.2576V146.07H97.502V154.594H96.2867V153.599H96.1827C96.1078 153.735 95.9995 153.89 95.858 154.065C95.7193 154.24 95.5279 154.393 95.2837 154.523C95.0395 154.653 94.7232 154.719 94.3348 154.719ZM94.6095 153.657C94.9674 153.657 95.2698 153.563 95.5168 153.374C95.7665 153.183 95.9552 152.918 96.0828 152.579C96.2132 152.241 96.2784 151.847 96.2784 151.397C96.2784 150.953 96.2146 150.565 96.0869 150.232C95.9593 149.899 95.772 149.64 95.5251 149.454C95.2781 149.268 94.9729 149.175 94.6095 149.175C94.2349 149.175 93.9227 149.272 93.673 149.466C93.4233 149.66 93.2346 149.925 93.107 150.261C92.9821 150.597 92.9197 150.976 92.9197 151.397C92.9197 151.825 92.9835 152.209 93.1112 152.55C93.2388 152.892 93.4275 153.162 93.6772 153.362C93.9297 153.559 94.2404 153.657 94.6095 153.657ZM101.013 154.735C100.607 154.735 100.241 154.66 99.9138 154.511C99.5864 154.358 99.327 154.137 99.1356 153.849C98.9469 153.56 98.8526 153.206 98.8526 152.787C98.8526 152.427 98.9219 152.13 99.0606 151.897C99.1994 151.664 99.3867 151.479 99.6225 151.343C99.8584 151.207 100.122 151.105 100.413 151.035C100.705 150.966 101.001 150.913 101.304 150.877C101.687 150.833 101.998 150.797 102.236 150.769C102.475 150.738 102.648 150.69 102.756 150.623C102.865 150.557 102.919 150.448 102.919 150.299V150.27C102.919 149.906 102.816 149.624 102.611 149.425C102.408 149.225 102.106 149.125 101.703 149.125C101.285 149.125 100.954 149.218 100.713 149.404C100.474 149.587 100.309 149.791 100.218 150.016L99.0482 149.749C99.1869 149.361 99.3894 149.047 99.6558 148.809C99.9249 148.567 100.234 148.392 100.584 148.284C100.934 148.173 101.301 148.118 101.687 148.118C101.942 148.118 102.213 148.148 102.498 148.209C102.787 148.268 103.056 148.376 103.306 148.534C103.558 148.692 103.765 148.918 103.926 149.212C104.087 149.504 104.167 149.882 104.167 150.349V154.594H102.952V153.72H102.902C102.822 153.881 102.701 154.039 102.54 154.194C102.379 154.35 102.172 154.479 101.92 154.581C101.667 154.684 101.365 154.735 101.013 154.735ZM101.283 153.736C101.627 153.736 101.921 153.668 102.165 153.532C102.412 153.397 102.6 153.219 102.727 153C102.858 152.778 102.923 152.541 102.923 152.288V151.464C102.879 151.508 102.793 151.55 102.665 151.589C102.54 151.625 102.397 151.657 102.236 151.685C102.075 151.71 101.919 151.733 101.766 151.755C101.613 151.775 101.486 151.791 101.383 151.805C101.142 151.836 100.921 151.887 100.721 151.959C100.524 152.031 100.366 152.135 100.247 152.271C100.13 152.405 100.072 152.582 100.072 152.804C100.072 153.112 100.186 153.345 100.413 153.503C100.641 153.659 100.931 153.736 101.283 153.736ZM107.559 154.735C107.154 154.735 106.788 154.66 106.461 154.511C106.133 154.358 105.874 154.137 105.682 153.849C105.494 153.56 105.399 153.206 105.399 152.787C105.399 152.427 105.469 152.13 105.607 151.897C105.746 151.664 105.933 151.479 106.169 151.343C106.405 151.207 106.669 151.105 106.96 151.035C107.251 150.966 107.548 150.913 107.851 150.877C108.234 150.833 108.544 150.797 108.783 150.769C109.022 150.738 109.195 150.69 109.303 150.623C109.411 150.557 109.465 150.448 109.465 150.299V150.27C109.465 149.906 109.363 149.624 109.157 149.425C108.955 149.225 108.653 149.125 108.25 149.125C107.831 149.125 107.501 149.218 107.26 149.404C107.021 149.587 106.856 149.791 106.764 150.016L105.595 149.749C105.734 149.361 105.936 149.047 106.203 148.809C106.472 148.567 106.781 148.392 107.131 148.284C107.48 148.173 107.848 148.118 108.234 148.118C108.489 148.118 108.759 148.148 109.045 148.209C109.334 148.268 109.603 148.376 109.853 148.534C110.105 148.692 110.312 148.918 110.473 149.212C110.634 149.504 110.714 149.882 110.714 150.349V154.594H109.499V153.72H109.449C109.368 153.881 109.248 154.039 109.087 154.194C108.926 154.35 108.719 154.479 108.467 154.581C108.214 154.684 107.912 154.735 107.559 154.735ZM107.83 153.736C108.174 153.736 108.468 153.668 108.712 153.532C108.959 153.397 109.146 153.219 109.274 153C109.404 152.778 109.47 152.541 109.47 152.288V151.464C109.425 151.508 109.339 151.55 109.212 151.589C109.087 151.625 108.944 151.657 108.783 151.685C108.622 151.71 108.465 151.733 108.313 151.755C108.16 151.775 108.032 151.791 107.93 151.805C107.688 151.836 107.468 151.887 107.268 151.959C107.071 152.031 106.913 152.135 106.794 152.271C106.677 152.405 106.619 152.582 106.619 152.804C106.619 153.112 106.732 153.345 106.96 153.503C107.188 153.659 107.477 153.736 107.83 153.736ZM113.49 146.07V154.594H112.246V146.07H113.49ZM118.022 148.201V149.2H114.531V148.201H118.022ZM115.467 146.669H116.711V152.717C116.711 152.958 116.747 153.14 116.82 153.262C116.892 153.381 116.985 153.463 117.098 153.507C117.215 153.549 117.341 153.57 117.477 153.57C117.577 153.57 117.664 153.563 117.739 153.549C117.814 153.535 117.873 153.524 117.914 153.516L118.139 154.544C118.067 154.572 117.964 154.599 117.831 154.627C117.698 154.658 117.531 154.674 117.332 154.677C117.004 154.683 116.699 154.624 116.416 154.502C116.133 154.38 115.904 154.191 115.729 153.936C115.554 153.681 115.467 153.36 115.467 152.975V146.669ZM124.942 154.723C124.342 154.723 123.819 154.585 123.373 154.311C122.926 154.036 122.579 153.652 122.332 153.158C122.085 152.664 121.962 152.087 121.962 151.427C121.962 150.763 122.085 150.183 122.332 149.687C122.579 149.19 122.926 148.805 123.373 148.53C123.819 148.255 124.342 148.118 124.942 148.118C125.541 148.118 126.064 148.255 126.511 148.53C126.957 148.805 127.304 149.19 127.551 149.687C127.798 150.183 127.922 150.763 127.922 151.427C127.922 152.087 127.798 152.664 127.551 153.158C127.304 153.652 126.957 154.036 126.511 154.311C126.064 154.585 125.541 154.723 124.942 154.723ZM124.946 153.678C125.334 153.678 125.656 153.575 125.911 153.37C126.167 153.165 126.355 152.892 126.477 152.55C126.602 152.209 126.665 151.833 126.665 151.422C126.665 151.014 126.602 150.64 126.477 150.299C126.355 149.955 126.167 149.679 125.911 149.47C125.656 149.262 125.334 149.158 124.946 149.158C124.555 149.158 124.23 149.262 123.972 149.47C123.717 149.679 123.527 149.955 123.402 150.299C123.28 150.64 123.219 151.014 123.219 151.422C123.219 151.833 123.28 152.209 123.402 152.55C123.527 152.892 123.717 153.165 123.972 153.37C124.23 153.575 124.555 153.678 124.946 153.678ZM134.436 148.201L132.118 154.594H130.786L128.464 148.201H129.8L131.419 153.12H131.485L133.1 148.201H134.436ZM138.017 154.723C137.388 154.723 136.845 154.588 136.39 154.319C135.938 154.047 135.588 153.666 135.341 153.175C135.097 152.681 134.975 152.102 134.975 151.439C134.975 150.784 135.097 150.207 135.341 149.708C135.588 149.208 135.932 148.818 136.373 148.538C136.817 148.258 137.336 148.118 137.93 148.118C138.291 148.118 138.64 148.177 138.979 148.297C139.317 148.416 139.621 148.603 139.89 148.859C140.159 149.114 140.372 149.445 140.527 149.853C140.682 150.258 140.76 150.751 140.76 151.331V151.772H135.678V150.84H139.541C139.541 150.512 139.474 150.222 139.341 149.97C139.208 149.715 139.02 149.513 138.779 149.366C138.54 149.219 138.26 149.146 137.938 149.146C137.589 149.146 137.283 149.232 137.023 149.404C136.765 149.573 136.565 149.795 136.423 150.07C136.285 150.342 136.215 150.637 136.215 150.956V151.685C136.215 152.112 136.29 152.475 136.44 152.775C136.593 153.075 136.805 153.304 137.077 153.462C137.349 153.617 137.666 153.695 138.03 153.695C138.266 153.695 138.481 153.661 138.675 153.595C138.869 153.526 139.037 153.423 139.179 153.287C139.32 153.151 139.428 152.983 139.503 152.783L140.681 152.996C140.587 153.342 140.417 153.646 140.173 153.907C139.932 154.165 139.628 154.366 139.262 154.511C138.898 154.652 138.484 154.723 138.017 154.723ZM142.015 154.594V148.201H143.218V149.217H143.284C143.401 148.872 143.606 148.602 143.9 148.405C144.197 148.205 144.533 148.105 144.907 148.105C144.985 148.105 145.077 148.108 145.182 148.114C145.29 148.119 145.375 148.126 145.436 148.134V149.325C145.386 149.311 145.297 149.296 145.17 149.279C145.042 149.26 144.914 149.25 144.787 149.25C144.493 149.25 144.23 149.312 144 149.437C143.773 149.559 143.592 149.73 143.459 149.949C143.326 150.165 143.259 150.412 143.259 150.69V154.594H142.015ZM147.207 154.673C146.979 154.673 146.784 154.592 146.62 154.431C146.456 154.268 146.375 154.071 146.375 153.84C146.375 153.613 146.456 153.419 146.62 153.258C146.784 153.094 146.979 153.012 147.207 153.012C147.434 153.012 147.63 153.094 147.794 153.258C147.957 153.419 148.039 153.613 148.039 153.84C148.039 153.993 148 154.133 147.923 154.261C147.848 154.386 147.748 154.486 147.623 154.56C147.498 154.635 147.36 154.673 147.207 154.673ZM147.207 150.02C146.979 150.02 146.784 149.938 146.62 149.774C146.456 149.611 146.375 149.415 146.375 149.187C146.375 148.96 146.456 148.766 146.62 148.605C146.784 148.441 146.979 148.359 147.207 148.359C147.434 148.359 147.63 148.441 147.794 148.605C147.957 148.766 148.039 148.96 148.039 149.187C148.039 149.34 148 149.48 147.923 149.608C147.848 149.733 147.748 149.833 147.623 149.907C147.498 149.982 147.36 150.02 147.207 150.02Z" fill="#0A0A0A"/>
<path d="M458.87 154.71C458.249 154.71 457.695 154.603 457.21 154.39C456.727 154.173 456.345 153.877 456.065 153.499C455.788 153.119 455.645 152.681 455.636 152.184H457.451C457.462 152.392 457.53 152.575 457.655 152.733C457.783 152.889 457.952 153.009 458.163 153.095C458.374 153.181 458.611 153.224 458.874 153.224C459.149 153.224 459.392 153.176 459.603 153.079C459.814 152.982 459.979 152.847 460.098 152.675C460.217 152.503 460.277 152.305 460.277 152.08C460.277 151.852 460.213 151.651 460.086 151.476C459.961 151.299 459.78 151.16 459.545 151.06C459.311 150.96 459.034 150.91 458.712 150.91H457.917V149.587H458.712C458.984 149.587 459.224 149.54 459.432 149.445C459.643 149.351 459.807 149.221 459.923 149.054C460.04 148.885 460.098 148.688 460.098 148.463C460.098 148.25 460.047 148.062 459.944 147.901C459.844 147.738 459.703 147.61 459.52 147.518C459.339 147.427 459.128 147.381 458.887 147.381C458.643 147.381 458.419 147.426 458.217 147.514C458.014 147.6 457.852 147.724 457.73 147.885C457.608 148.046 457.543 148.234 457.534 148.451H455.807C455.815 147.96 455.956 147.527 456.227 147.152C456.499 146.778 456.866 146.485 457.326 146.274C457.79 146.06 458.313 145.954 458.895 145.954C459.483 145.954 459.998 146.06 460.439 146.274C460.88 146.488 461.223 146.776 461.467 147.14C461.714 147.5 461.836 147.906 461.834 148.355C461.836 148.832 461.688 149.23 461.388 149.549C461.091 149.869 460.704 150.071 460.227 150.157V150.224C460.854 150.304 461.331 150.522 461.659 150.877C461.989 151.23 462.153 151.671 462.15 152.201C462.153 152.686 462.013 153.118 461.73 153.495C461.449 153.872 461.062 154.169 460.568 154.386C460.074 154.602 459.508 154.71 458.87 154.71ZM464.372 153.603C464.098 153.603 463.862 153.506 463.665 153.312C463.471 153.118 463.373 152.882 463.373 152.604C463.373 152.332 463.471 152.099 463.665 151.905C463.862 151.711 464.098 151.614 464.372 151.614C464.639 151.614 464.872 151.711 465.072 151.905C465.271 152.099 465.371 152.332 465.371 152.604C465.371 152.787 465.324 152.955 465.23 153.108C465.138 153.258 465.017 153.378 464.868 153.47C464.718 153.559 464.553 153.603 464.372 153.603ZM464.372 149.42C464.098 149.42 463.862 149.323 463.665 149.129C463.471 148.935 463.373 148.699 463.373 148.422C463.373 148.15 463.471 147.918 463.665 147.727C463.862 147.532 464.098 147.435 464.372 147.435C464.639 147.435 464.872 147.532 465.072 147.727C465.271 147.918 465.371 148.15 465.371 148.422C465.371 148.608 465.324 148.777 465.23 148.929C465.138 149.079 465.017 149.198 464.868 149.287C464.718 149.376 464.553 149.42 464.372 149.42ZM466.555 153.095V151.676L470.114 146.07H471.337V148.035H470.613L468.37 151.585V151.651H473.427V153.095H466.555ZM470.646 154.594V152.663L470.68 152.034V146.07H472.369V154.594H470.646ZM474.501 154.594V153.295L477.535 150.486C477.794 150.236 478.01 150.011 478.185 149.812C478.362 149.612 478.497 149.416 478.588 149.225C478.68 149.031 478.726 148.821 478.726 148.596C478.726 148.347 478.669 148.132 478.555 147.951C478.441 147.768 478.286 147.628 478.089 147.531C477.892 147.431 477.669 147.381 477.419 147.381C477.158 147.381 476.931 147.434 476.736 147.539C476.542 147.645 476.392 147.796 476.287 147.993C476.181 148.19 476.129 148.424 476.129 148.696H474.418C474.418 148.139 474.544 147.654 474.797 147.244C475.049 146.833 475.403 146.515 475.858 146.291C476.313 146.066 476.838 145.954 477.431 145.954C478.042 145.954 478.573 146.062 479.025 146.278C479.481 146.492 479.834 146.789 480.087 147.169C480.339 147.549 480.465 147.985 480.465 148.476C480.465 148.798 480.402 149.115 480.274 149.429C480.149 149.742 479.926 150.091 479.604 150.473C479.282 150.854 478.828 151.31 478.243 151.843L476.999 153.062V153.12H480.578V154.594H474.501ZM482.811 153.603C482.536 153.603 482.3 153.506 482.103 153.312C481.909 153.118 481.812 152.882 481.812 152.604C481.812 152.332 481.909 152.099 482.103 151.905C482.3 151.711 482.536 151.614 482.811 151.614C483.077 151.614 483.31 151.711 483.51 151.905C483.71 152.099 483.81 152.332 483.81 152.604C483.81 152.787 483.762 152.955 483.668 153.108C483.577 153.258 483.456 153.378 483.306 153.47C483.156 153.559 482.991 153.603 482.811 153.603ZM482.811 149.42C482.536 149.42 482.3 149.323 482.103 149.129C481.909 148.935 481.812 148.699 481.812 148.422C481.812 148.15 481.909 147.918 482.103 147.727C482.3 147.532 482.536 147.435 482.811 147.435C483.077 147.435 483.31 147.532 483.51 147.727C483.71 147.918 483.81 148.15 483.81 148.422C483.81 148.608 483.762 148.777 483.668 148.929C483.577 149.079 483.456 149.198 483.306 149.287C483.156 149.376 482.991 149.42 482.811 149.42ZM488.831 146.07V154.594H487.029V147.781H486.979L485.027 149.004V147.406L487.137 146.07H488.831ZM493.911 154.71C493.27 154.71 492.699 154.606 492.2 154.398C491.703 154.187 491.314 153.9 491.031 153.537C490.748 153.173 490.606 152.761 490.606 152.301C490.606 151.945 490.687 151.619 490.847 151.322C491.011 151.023 491.233 150.774 491.513 150.577C491.794 150.378 492.107 150.25 492.454 150.195V150.136C491.999 150.045 491.63 149.824 491.347 149.475C491.064 149.122 490.922 148.713 490.922 148.247C490.922 147.806 491.051 147.413 491.309 147.069C491.567 146.722 491.921 146.45 492.371 146.253C492.823 146.053 493.336 145.954 493.911 145.954C494.485 145.954 494.997 146.053 495.446 146.253C495.899 146.453 496.254 146.726 496.512 147.073C496.77 147.417 496.9 147.808 496.903 148.247C496.9 148.716 496.756 149.125 496.47 149.475C496.184 149.824 495.818 150.045 495.371 150.136V150.195C495.713 150.25 496.022 150.378 496.3 150.577C496.58 150.774 496.802 151.023 496.965 151.322C497.132 151.619 497.217 151.945 497.219 152.301C497.217 152.761 497.074 153.173 496.791 153.537C496.508 153.9 496.116 154.187 495.617 154.398C495.12 154.606 494.552 154.71 493.911 154.71ZM493.911 153.387C494.196 153.387 494.446 153.335 494.66 153.233C494.873 153.127 495.04 152.983 495.159 152.8C495.281 152.614 495.342 152.4 495.342 152.159C495.342 151.912 495.28 151.694 495.155 151.506C495.03 151.314 494.861 151.164 494.647 151.056C494.434 150.945 494.188 150.89 493.911 150.89C493.636 150.89 493.39 150.945 493.174 151.056C492.958 151.164 492.787 151.314 492.662 151.506C492.54 151.694 492.479 151.912 492.479 152.159C492.479 152.4 492.539 152.614 492.658 152.8C492.777 152.983 492.945 153.127 493.161 153.233C493.378 153.335 493.628 153.387 493.911 153.387ZM493.911 149.579C494.149 149.579 494.361 149.53 494.547 149.433C494.733 149.336 494.879 149.201 494.984 149.029C495.09 148.857 495.143 148.659 495.143 148.434C495.143 148.212 495.09 148.018 494.984 147.851C494.879 147.682 494.735 147.55 494.552 147.456C494.368 147.359 494.155 147.31 493.911 147.31C493.669 147.31 493.456 147.359 493.27 147.456C493.084 147.55 492.938 147.682 492.833 147.851C492.73 148.018 492.679 148.212 492.679 148.434C492.679 148.659 492.731 148.857 492.837 149.029C492.942 149.201 493.088 149.336 493.274 149.433C493.46 149.53 493.672 149.579 493.911 149.579Z" fill="#F54900"/>
<path d="M64.6436 167.818C64.6436 165.97 66.1418 164.472 67.9899 164.472H496.512C498.36 164.472 499.858 165.97 499.858 167.818C499.858 169.666 498.36 171.164 496.512 171.164H67.9899C66.1418 171.164 64.6436 169.666 64.6436 167.818Z" fill="#E5E7EB"/>
<path d="M64.6436 167.818C64.6436 165.97 66.1418 164.472 67.9899 164.472H353.841C355.689 164.472 357.188 165.97 357.188 167.818C357.188 169.666 355.689 171.164 353.841 171.164H67.99C66.1418 171.164 64.6436 169.666 64.6436 167.818Z" fill="url(#paint0_linear_376_702)"/>
</g>
<g filter="url(#filter2_dd_376_702)">
<path d="M51.251 205.953C51.251 201.33 54.999 197.582 59.6224 197.582H268.88C273.503 197.582 277.251 201.33 277.251 205.953V276.211C277.251 280.834 273.503 284.582 268.88 284.582H59.6224C54.999 284.582 51.251 280.834 51.251 276.211V205.953Z" fill="white" shape-rendering="crispEdges"/>
<g clip-path="url(#clip0_376_702)">
<path d="M78.596 217.951C78.596 221.434 74.7319 225.062 73.4343 226.182C73.3134 226.273 73.1663 226.322 73.015 226.322C72.8638 226.322 72.7166 226.273 72.5958 226.182C71.2982 225.062 67.4341 221.434 67.4341 217.951C67.4341 216.471 68.0221 215.051 69.0687 214.005C70.1153 212.958 71.5349 212.37 73.015 212.37C74.4952 212.37 75.9147 212.958 76.9614 214.005C78.008 215.051 78.596 216.471 78.596 217.951Z" stroke="#6FAF3A" stroke-width="1.39524" stroke-linecap="round" stroke-linejoin="round"/>
<path d="M73.0147 220.044C74.1706 220.044 75.1076 219.107 75.1076 217.951C75.1076 216.795 74.1706 215.858 73.0147 215.858C71.8589 215.858 70.9219 216.795 70.9219 217.951C70.9219 219.107 71.8589 220.044 73.0147 220.044Z" stroke="#6FAF3A" stroke-width="1.39524" stroke-linecap="round" stroke-linejoin="round"/>
</g>
<path d="M65.8279 244.875H64.9004L67.5831 237.569H68.4963L71.179 244.875H70.2515L68.0682 238.725H68.0112L65.8279 244.875ZM66.1704 242.021H69.909V242.806H66.1704V242.021ZM74.6429 239.396V240.109H71.6891V239.396H74.6429ZM72.5738 244.875V238.639C72.5738 238.325 72.6475 238.064 72.795 237.854C72.9424 237.645 73.1339 237.488 73.3693 237.384C73.6048 237.279 73.8533 237.227 74.1149 237.227C74.3218 237.227 74.4907 237.243 74.6215 237.277C74.7523 237.31 74.8498 237.341 74.914 237.369L74.6714 238.097C74.6286 238.083 74.5692 238.065 74.4931 238.043C74.4193 238.022 74.3218 238.011 74.2005 238.011C73.9223 238.011 73.7213 238.082 73.5977 238.222C73.4764 238.362 73.4157 238.568 73.4157 238.839V244.875H72.5738ZM79.4785 240.623L78.7222 240.837C78.6746 240.711 78.6045 240.588 78.5117 240.469C78.4213 240.348 78.2977 240.248 78.1407 240.17C77.9837 240.091 77.7828 240.052 77.5378 240.052C77.2025 240.052 76.923 240.129 76.6995 240.284C76.4783 240.436 76.3677 240.63 76.3677 240.865C76.3677 241.075 76.4438 241.24 76.596 241.361C76.7482 241.482 76.9861 241.584 77.3095 241.664L78.1229 241.864C78.6128 241.983 78.9778 242.165 79.218 242.41C79.4582 242.653 79.5783 242.965 79.5783 243.348C79.5783 243.662 79.488 243.943 79.3072 244.19C79.1289 244.437 78.8791 244.632 78.5581 244.775C78.237 244.918 77.8636 244.989 77.4379 244.989C76.879 244.989 76.4165 244.868 76.0502 244.625C75.684 244.383 75.4521 244.028 75.3546 243.562L76.1537 243.362C76.2298 243.657 76.3737 243.879 76.5853 244.026C76.7994 244.173 77.0788 244.247 77.4237 244.247C77.8161 244.247 78.1276 244.164 78.3583 243.997C78.5914 243.829 78.7079 243.626 78.7079 243.391C78.7079 243.201 78.6413 243.041 78.5081 242.913C78.375 242.782 78.1704 242.685 77.8946 242.62L76.9813 242.406C76.4795 242.287 76.1109 242.103 75.8754 241.853C75.6424 241.601 75.5258 241.286 75.5258 240.908C75.5258 240.599 75.6126 240.325 75.7862 240.088C75.9622 239.85 76.2012 239.663 76.5033 239.528C76.8077 239.392 77.1525 239.324 77.5378 239.324C78.0801 239.324 78.5058 239.443 78.8149 239.681C79.1265 239.919 79.3477 240.233 79.4785 240.623ZM83.2287 239.396V240.109H80.389V239.396H83.2287ZM81.2167 238.083H82.0586V243.305C82.0586 243.543 82.093 243.722 82.162 243.84C82.2334 243.957 82.3237 244.035 82.4331 244.076C82.5449 244.114 82.6626 244.133 82.7863 244.133C82.8791 244.133 82.9552 244.128 83.0146 244.119C83.0741 244.107 83.1216 244.097 83.1573 244.09L83.3285 244.846C83.2715 244.868 83.1918 244.889 83.0895 244.911C82.9873 244.934 82.8577 244.946 82.7007 244.946C82.4629 244.946 82.2298 244.895 82.0015 244.793C81.7756 244.691 81.5877 244.535 81.4378 244.326C81.2904 244.116 81.2167 243.852 81.2167 243.534V238.083ZM86.1075 245.003C85.7603 245.003 85.4452 244.938 85.1622 244.807C84.8792 244.674 84.6544 244.483 84.4879 244.233C84.3215 243.981 84.2382 243.676 84.2382 243.32C84.2382 243.006 84.3001 242.751 84.4237 242.556C84.5474 242.359 84.7127 242.204 84.9196 242.092C85.1265 241.981 85.3548 241.897 85.6045 241.843C85.8566 241.786 86.1099 241.74 86.3644 241.707C86.6973 241.664 86.9673 241.632 87.1742 241.611C87.3835 241.587 87.5357 241.548 87.6308 241.493C87.7283 241.438 87.7771 241.343 87.7771 241.208V241.179C87.7771 240.827 87.6807 240.554 87.4881 240.359C87.2978 240.164 87.0089 240.066 86.6212 240.066C86.2193 240.066 85.9042 240.154 85.6759 240.33C85.4476 240.506 85.287 240.694 85.1943 240.894L84.3952 240.608C84.5379 240.275 84.7281 240.016 84.966 239.831C85.2062 239.643 85.4678 239.512 85.7508 239.438C86.0362 239.362 86.3168 239.324 86.5927 239.324C86.7687 239.324 86.9708 239.346 87.1991 239.388C87.4298 239.429 87.6522 239.513 87.8662 239.642C88.0827 239.77 88.2622 239.964 88.4049 240.223C88.5476 240.482 88.619 240.83 88.619 241.265V244.875H87.7771V244.133H87.7342C87.6772 244.252 87.582 244.379 87.4489 244.515C87.3157 244.65 87.1385 244.766 86.9173 244.861C86.6961 244.956 86.4262 245.003 86.1075 245.003ZM86.236 244.247C86.5689 244.247 86.8495 244.182 87.0779 244.051C87.3085 243.92 87.4822 243.751 87.5987 243.544C87.7176 243.337 87.7771 243.12 87.7771 242.892V242.121C87.7414 242.164 87.6629 242.203 87.5416 242.239C87.4227 242.272 87.2848 242.302 87.1278 242.328C86.9732 242.352 86.8222 242.373 86.6747 242.392C86.5297 242.409 86.4119 242.423 86.3216 242.435C86.1028 242.463 85.8982 242.51 85.708 242.574C85.5201 242.636 85.3679 242.73 85.2514 242.856C85.1372 242.98 85.0801 243.148 85.0801 243.362C85.0801 243.655 85.1883 243.876 85.4048 244.026C85.6236 244.173 85.9006 244.247 86.236 244.247ZM90.9975 241.579V244.875H90.1556V239.396H90.969V240.252H91.0403C91.1687 239.973 91.3637 239.75 91.6254 239.581C91.887 239.41 92.2247 239.324 92.6385 239.324C93.0095 239.324 93.3341 239.4 93.6124 239.552C93.8906 239.702 94.1071 239.931 94.2616 240.237C94.4162 240.542 94.4935 240.927 94.4935 241.393V244.875H93.6516V241.45C93.6516 241.02 93.5398 240.685 93.3163 240.444C93.0927 240.202 92.7859 240.08 92.3959 240.08C92.1272 240.08 91.887 240.139 91.6753 240.255C91.466 240.372 91.3007 240.542 91.1794 240.765C91.0581 240.989 90.9975 241.26 90.9975 241.579ZM98.101 244.989C97.6444 244.989 97.2413 244.874 96.8917 244.643C96.5421 244.41 96.2686 244.082 96.0712 243.659C95.8738 243.233 95.7751 242.73 95.7751 242.15C95.7751 241.574 95.8738 241.075 96.0712 240.651C96.2686 240.228 96.5433 239.901 96.8953 239.67C97.2472 239.44 97.6539 239.324 98.1153 239.324C98.472 239.324 98.7539 239.384 98.9608 239.503C99.17 239.619 99.3294 239.752 99.4388 239.902C99.5506 240.05 99.6374 240.171 99.6992 240.266H99.7706V237.569H100.612V244.875H99.7991V244.033H99.6992C99.6374 244.133 99.5494 244.259 99.4352 244.411C99.3211 244.561 99.1582 244.695 98.9465 244.814C98.7348 244.931 98.453 244.989 98.101 244.989ZM98.2152 244.233C98.5529 244.233 98.8383 244.145 99.0713 243.969C99.3044 243.791 99.4816 243.544 99.6029 243.23C99.7242 242.914 99.7848 242.549 99.7848 242.135C99.7848 241.726 99.7254 241.368 99.6065 241.061C99.4875 240.752 99.3116 240.512 99.0785 240.341C98.8454 240.167 98.5576 240.08 98.2152 240.08C97.8584 240.08 97.5612 240.172 97.3233 240.355C97.0879 240.536 96.9107 240.782 96.7918 241.094C96.6753 241.403 96.617 241.75 96.617 242.135C96.617 242.525 96.6765 242.88 96.7954 243.198C96.9167 243.515 97.095 243.767 97.3305 243.955C97.5683 244.14 97.8632 244.233 98.2152 244.233Z" fill="#4A5565"/>
<path d="M65.4331 265.487V264.003L68.9006 260.793C69.1955 260.507 69.4429 260.25 69.6426 260.022C69.8456 259.794 69.9994 259.57 70.104 259.351C70.2087 259.129 70.261 258.89 70.261 258.633C70.261 258.348 70.196 258.102 70.066 257.896C69.9359 257.687 69.7584 257.527 69.5332 257.416C69.3081 257.301 69.0528 257.244 68.7674 257.244C68.4694 257.244 68.2093 257.305 67.9874 257.425C67.7654 257.546 67.5942 257.718 67.4737 257.944C67.3532 258.169 67.2929 258.437 67.2929 258.747H65.338C65.338 258.11 65.4823 257.557 65.7708 257.087C66.0594 256.618 66.4637 256.255 66.9837 255.998C67.5038 255.741 68.1031 255.613 68.7817 255.613C69.4793 255.613 70.0866 255.736 70.6034 255.984C71.1235 256.228 71.5278 256.567 71.8163 257.002C72.1049 257.436 72.2492 257.934 72.2492 258.495C72.2492 258.863 72.1763 259.226 72.0304 259.584C71.8877 259.943 71.6324 260.341 71.2646 260.778C70.8968 261.213 70.3783 261.734 69.7092 262.343L68.287 263.737V263.804H72.3776V265.487H65.4331ZM74.8117 265.611C74.4978 265.611 74.2283 265.5 74.0031 265.278C73.7812 265.053 73.6702 264.783 73.6702 264.469C73.6702 264.159 73.7812 263.892 74.0031 263.67C74.2283 263.448 74.4978 263.337 74.8117 263.337C75.1162 263.337 75.3825 263.448 75.6108 263.67C75.8392 263.892 75.9533 264.159 75.9533 264.469C75.9533 264.679 75.8994 264.871 75.7916 265.045C75.6869 265.216 75.549 265.354 75.3778 265.459C75.2065 265.56 75.0179 265.611 74.8117 265.611ZM80.623 265.62C79.9127 265.62 79.2801 265.498 78.7252 265.254C78.1734 265.007 77.7374 264.668 77.4171 264.236C77.1 263.802 76.9367 263.301 76.9272 262.733H79.001C79.0137 262.971 79.0914 263.18 79.2341 263.361C79.38 263.539 79.5734 263.677 79.8144 263.775C80.0554 263.873 80.3265 263.922 80.6277 263.922C80.9417 263.922 81.2191 263.867 81.4601 263.756C81.7011 263.645 81.8898 263.491 82.0262 263.295C82.1625 263.098 82.2307 262.871 82.2307 262.614C82.2307 262.354 82.1578 262.124 82.0119 261.925C81.8692 261.722 81.6631 261.563 81.3935 261.449C81.1272 261.335 80.8101 261.278 80.4422 261.278H79.5338V259.765H80.4422C80.753 259.765 81.0273 259.711 81.2651 259.604C81.5061 259.496 81.6932 259.347 81.8264 259.156C81.9596 258.963 82.0262 258.738 82.0262 258.481C82.0262 258.237 81.9675 258.023 81.8502 257.839C81.736 257.652 81.5743 257.506 81.365 257.401C81.1589 257.297 80.9179 257.244 80.642 257.244C80.363 257.244 80.1077 257.295 79.8762 257.397C79.6447 257.495 79.4592 257.636 79.3197 257.82C79.1802 258.004 79.1057 258.219 79.0962 258.467H77.1222C77.1317 257.905 77.2919 257.411 77.6026 256.983C77.9134 256.555 78.3319 256.22 78.8583 255.979C79.3879 255.735 79.9856 255.613 80.6515 255.613C81.3238 255.613 81.912 255.735 82.4162 255.979C82.9204 256.223 83.312 256.553 83.591 256.968C83.8733 257.381 84.0128 257.844 84.0096 258.357C84.0128 258.903 83.8431 259.358 83.5007 259.722C83.1614 260.087 82.719 260.319 82.1736 260.417V260.493C82.8903 260.585 83.4357 260.834 83.8098 261.24C84.1872 261.642 84.3743 262.147 84.3711 262.752C84.3743 263.307 84.2141 263.8 83.8907 264.232C83.5704 264.663 83.1281 265.002 82.5636 265.249C81.9992 265.497 81.3523 265.62 80.623 265.62ZM90.2834 263.385L90.2882 260.954H90.5831L92.9233 258.181H95.2492L92.1052 261.853H91.6248L90.2834 263.385ZM88.4474 265.487V255.746H90.4737V265.487H88.4474ZM93.0137 265.487L90.8637 262.305L92.2146 260.874L95.3871 265.487H93.0137ZM95.9817 265.487V258.181H97.9128V259.47H97.9985C98.1507 259.042 98.4043 258.705 98.7595 258.457C99.1147 258.21 99.5396 258.086 100.034 258.086C100.535 258.086 100.962 258.211 101.314 258.462C101.666 258.709 101.9 259.045 102.018 259.47H102.094C102.243 259.052 102.512 258.717 102.902 258.467C103.296 258.213 103.76 258.086 104.296 258.086C104.978 258.086 105.531 258.303 105.956 258.738C106.384 259.169 106.598 259.781 106.598 260.574V265.487H104.577V260.973C104.577 260.568 104.469 260.263 104.253 260.06C104.038 259.857 103.768 259.756 103.445 259.756C103.077 259.756 102.79 259.873 102.584 260.108C102.378 260.339 102.275 260.645 102.275 261.026V265.487H100.31V260.931C100.31 260.572 100.207 260.287 100.001 260.074C99.798 259.862 99.5301 259.756 99.1971 259.756C98.972 259.756 98.769 259.813 98.5883 259.927C98.4107 260.038 98.2696 260.195 98.1649 260.398C98.0603 260.598 98.008 260.832 98.008 261.102V265.487H95.9817Z" fill="#0A0A0A"/>
</g>
<g filter="url(#filter3_dd_376_702)">
<path d="M287.251 205.953C287.251 201.33 290.999 197.582 295.622 197.582H504.88C509.503 197.582 513.251 201.33 513.251 205.953V276.211C513.251 280.834 509.503 284.582 504.88 284.582H295.622C290.999 284.582 287.251 280.834 287.251 276.211V205.953Z" fill="white" shape-rendering="crispEdges"/>
<path d="M314.596 216.556H303.434C303.049 216.556 302.736 216.868 302.736 217.253V218.649C302.736 219.034 303.049 219.346 303.434 219.346H314.596C314.981 219.346 315.293 219.034 315.293 218.649V217.253C315.293 216.868 314.981 216.556 314.596 216.556Z" stroke="#6FAF3A" stroke-width="1.39524" stroke-linecap="round" stroke-linejoin="round"/>
<path d="M309.015 216.556V225.625" stroke="#6FAF3A" stroke-width="1.39524" stroke-linecap="round" stroke-linejoin="round"/>
<path d="M313.899 219.347V224.23C313.899 224.6 313.752 224.955 313.49 225.217C313.228 225.478 312.873 225.625 312.503 225.625H305.527C305.157 225.625 304.802 225.478 304.54 225.217C304.279 224.955 304.132 224.6 304.132 224.23V219.347" stroke="#6FAF3A" stroke-width="1.39524" stroke-linecap="round" stroke-linejoin="round"/>
<path d="M305.876 216.556C305.413 216.556 304.97 216.372 304.643 216.045C304.316 215.718 304.132 215.274 304.132 214.812C304.132 214.349 304.316 213.906 304.643 213.579C304.97 213.251 305.413 213.068 305.876 213.068C306.549 213.056 307.208 213.382 307.768 214.005C308.328 214.627 308.763 215.516 309.015 216.556C309.268 215.516 309.702 214.627 310.262 214.005C310.822 213.382 311.481 213.056 312.154 213.068C312.617 213.068 313.061 213.251 313.388 213.579C313.715 213.906 313.899 214.349 313.899 214.812C313.899 215.274 313.715 215.718 313.388 216.045C313.061 216.372 312.617 216.556 312.154 216.556" stroke="#6FAF3A" stroke-width="1.39524" stroke-linecap="round" stroke-linejoin="round"/>
<path d="M301.828 237.569L303.997 243.719H304.082L306.251 237.569H307.179L304.496 244.875H303.583L300.9 237.569H301.828ZM309.99 244.989C309.462 244.989 309.007 244.873 308.624 244.64C308.243 244.404 307.95 244.076 307.743 243.655C307.538 243.232 307.436 242.739 307.436 242.178C307.436 241.617 307.538 241.122 307.743 240.694C307.95 240.264 308.237 239.928 308.606 239.688C308.977 239.445 309.41 239.324 309.904 239.324C310.19 239.324 310.472 239.372 310.75 239.467C311.028 239.562 311.281 239.717 311.51 239.931C311.738 240.142 311.92 240.423 312.056 240.773C312.191 241.122 312.259 241.553 312.259 242.064V242.421H308.035V241.693H311.403C311.403 241.384 311.341 241.108 311.217 240.865C311.096 240.623 310.922 240.431 310.696 240.291C310.473 240.151 310.209 240.08 309.904 240.08C309.569 240.08 309.279 240.164 309.034 240.33C308.791 240.494 308.605 240.708 308.474 240.972C308.343 241.236 308.278 241.519 308.278 241.821V242.306C308.278 242.72 308.349 243.071 308.492 243.359C308.637 243.644 308.838 243.862 309.095 244.012C309.352 244.159 309.65 244.233 309.99 244.233C310.211 244.233 310.411 244.202 310.589 244.14C310.77 244.076 310.926 243.981 311.057 243.855C311.188 243.726 311.289 243.567 311.36 243.377L312.173 243.605C312.088 243.881 311.944 244.123 311.742 244.333C311.539 244.54 311.29 244.701 310.992 244.818C310.695 244.932 310.361 244.989 309.99 244.989ZM313.54 244.875V239.396H314.353V240.223H314.41C314.51 239.952 314.691 239.732 314.952 239.563C315.214 239.394 315.509 239.31 315.837 239.31C315.899 239.31 315.976 239.311 316.069 239.313C316.162 239.316 316.232 239.319 316.279 239.324V240.18C316.251 240.173 316.185 240.163 316.083 240.148C315.983 240.132 315.877 240.123 315.766 240.123C315.499 240.123 315.261 240.179 315.052 240.291C314.845 240.4 314.681 240.553 314.56 240.748C314.441 240.94 314.381 241.16 314.381 241.408V244.875H313.54ZM319.18 244.989C318.723 244.989 318.32 244.874 317.97 244.643C317.621 244.41 317.347 244.082 317.15 243.659C316.952 243.233 316.854 242.73 316.854 242.15C316.854 241.574 316.952 241.075 317.15 240.651C317.347 240.228 317.622 239.901 317.974 239.67C318.326 239.44 318.732 239.324 319.194 239.324C319.551 239.324 319.832 239.384 320.039 239.503C320.249 239.619 320.408 239.752 320.517 239.902C320.629 240.05 320.716 240.171 320.778 240.266H320.849V237.569H321.691V244.875H320.878V244.033H320.778C320.716 244.133 320.628 244.259 320.514 244.411C320.4 244.561 320.237 244.695 320.025 244.814C319.813 244.931 319.532 244.989 319.18 244.989ZM319.294 244.233C319.631 244.233 319.917 244.145 320.15 243.969C320.383 243.791 320.56 243.544 320.681 243.23C320.803 242.914 320.863 242.549 320.863 242.135C320.863 241.726 320.804 241.368 320.685 241.061C320.566 240.752 320.39 240.512 320.157 240.341C319.924 240.167 319.636 240.08 319.294 240.08C318.937 240.08 318.64 240.172 318.402 240.355C318.166 240.536 317.989 240.782 317.87 241.094C317.754 241.403 317.696 241.75 317.696 242.135C317.696 242.525 317.755 242.88 317.874 243.198C317.995 243.515 318.174 243.767 318.409 243.955C318.647 244.14 318.942 244.233 319.294 244.233ZM323.35 244.875V239.396H324.192V244.875H323.35ZM323.778 238.482C323.614 238.482 323.472 238.426 323.353 238.315C323.237 238.203 323.179 238.068 323.179 237.911C323.179 237.755 323.237 237.62 323.353 237.508C323.472 237.397 323.614 237.341 323.778 237.341C323.942 237.341 324.082 237.397 324.199 237.508C324.318 237.62 324.377 237.755 324.377 237.911C324.377 238.068 324.318 238.203 324.199 238.315C324.082 238.426 323.942 238.482 323.778 238.482ZM328.031 244.989C327.503 244.989 327.048 244.873 326.665 244.64C326.284 244.404 325.991 244.076 325.784 243.655C325.579 243.232 325.477 242.739 325.477 242.178C325.477 241.617 325.579 241.122 325.784 240.694C325.991 240.264 326.278 239.928 326.647 239.688C327.018 239.445 327.451 239.324 327.946 239.324C328.231 239.324 328.513 239.372 328.791 239.467C329.069 239.562 329.323 239.717 329.551 239.931C329.779 240.142 329.961 240.423 330.097 240.773C330.232 241.122 330.3 241.553 330.3 242.064V242.421H326.076V241.693H329.444C329.444 241.384 329.382 241.108 329.258 240.865C329.137 240.623 328.963 240.431 328.737 240.291C328.514 240.151 328.25 240.08 327.946 240.08C327.61 240.08 327.32 240.164 327.075 240.33C326.833 240.494 326.646 240.708 326.515 240.972C326.384 241.236 326.319 241.519 326.319 241.821V242.306C326.319 242.72 326.39 243.071 326.533 243.359C326.678 243.644 326.879 243.862 327.136 244.012C327.393 244.159 327.691 244.233 328.031 244.233C328.252 244.233 328.452 244.202 328.63 244.14C328.811 244.076 328.967 243.981 329.098 243.855C329.229 243.726 329.33 243.567 329.401 243.377L330.214 243.605C330.129 243.881 329.985 244.123 329.783 244.333C329.581 244.54 329.331 244.701 329.034 244.818C328.736 244.932 328.402 244.989 328.031 244.989ZM332.423 241.579V244.875H331.581V239.396H332.394V240.252H332.465C332.594 239.973 332.789 239.75 333.05 239.581C333.312 239.41 333.65 239.324 334.064 239.324C334.435 239.324 334.759 239.4 335.037 239.552C335.316 239.702 335.532 239.931 335.687 240.237C335.841 240.542 335.919 240.927 335.919 241.393V244.875H335.077V241.45C335.077 241.02 334.965 240.685 334.741 240.444C334.518 240.202 334.211 240.08 333.821 240.08C333.552 240.08 333.312 240.139 333.1 240.255C332.891 240.372 332.726 240.542 332.605 240.765C332.483 240.989 332.423 241.26 332.423 241.579Z" fill="#4A5565"/>
<path d="M304.991 265.62C304.319 265.62 303.719 265.497 303.193 265.249C302.67 265.002 302.254 264.661 301.947 264.227C301.639 263.792 301.479 263.295 301.466 262.733H303.464C303.486 263.111 303.645 263.417 303.94 263.651C304.235 263.886 304.585 264.003 304.991 264.003C305.314 264.003 305.6 263.932 305.847 263.789C306.098 263.643 306.293 263.442 306.432 263.185C306.575 262.925 306.646 262.627 306.646 262.291C306.646 261.948 306.573 261.647 306.427 261.387C306.285 261.127 306.087 260.924 305.833 260.778C305.579 260.633 305.289 260.558 304.962 260.555C304.677 260.555 304.4 260.613 304.13 260.731C303.864 260.848 303.656 261.008 303.507 261.211L301.676 260.883L302.137 255.746H308.092V257.43H303.835L303.583 259.87H303.64C303.811 259.629 304.07 259.429 304.415 259.271C304.761 259.112 305.148 259.033 305.576 259.033C306.163 259.033 306.686 259.171 307.146 259.447C307.605 259.722 307.969 260.101 308.235 260.583C308.501 261.062 308.633 261.614 308.63 262.239C308.633 262.895 308.481 263.478 308.173 263.989C307.869 264.496 307.442 264.896 306.894 265.188C306.348 265.476 305.714 265.62 304.991 265.62ZM312.662 268.227V258.181H314.66V259.409H314.75C314.839 259.212 314.967 259.012 315.135 258.809C315.307 258.603 315.529 258.432 315.801 258.295C316.077 258.156 316.42 258.086 316.829 258.086C317.361 258.086 317.853 258.226 318.303 258.505C318.754 258.781 319.113 259.198 319.383 259.756C319.652 260.311 319.787 261.007 319.787 261.844C319.787 262.659 319.656 263.347 319.392 263.908C319.132 264.466 318.777 264.89 318.327 265.178C317.88 265.464 317.379 265.606 316.824 265.606C316.431 265.606 316.096 265.541 315.82 265.411C315.548 265.281 315.324 265.118 315.15 264.921C314.975 264.722 314.842 264.52 314.75 264.317H314.688V268.227H312.662ZM314.645 261.834C314.645 262.269 314.706 262.648 314.826 262.971C314.947 263.295 315.121 263.547 315.349 263.727C315.578 263.905 315.855 263.994 316.182 263.994C316.512 263.994 316.791 263.903 317.019 263.723C317.247 263.539 317.42 263.285 317.537 262.962C317.658 262.635 317.718 262.259 317.718 261.834C317.718 261.413 317.66 261.042 317.542 260.721C317.425 260.401 317.252 260.151 317.024 259.97C316.795 259.789 316.515 259.699 316.182 259.699C315.852 259.699 315.573 259.786 315.345 259.96C315.12 260.135 314.947 260.382 314.826 260.702C314.706 261.023 314.645 261.4 314.645 261.834ZM322.903 255.746V265.487H320.876V255.746H322.903ZM328.949 262.377V258.181H330.976V265.487H329.03V264.16H328.954C328.789 264.588 328.515 264.932 328.131 265.192C327.751 265.452 327.286 265.582 326.738 265.582C326.249 265.582 325.82 265.471 325.449 265.249C325.078 265.028 324.788 264.712 324.578 264.303C324.372 263.894 324.267 263.404 324.264 262.833V258.181H326.291V262.472C326.294 262.903 326.409 263.244 326.638 263.494C326.866 263.745 327.172 263.87 327.556 263.87C327.8 263.87 328.028 263.815 328.241 263.704C328.453 263.589 328.624 263.421 328.754 263.199C328.888 262.977 328.953 262.703 328.949 262.377ZM334.171 263.385L334.176 260.954H334.471L336.811 258.181H339.137L335.993 261.853H335.512L334.171 263.385ZM332.335 265.487V255.746H334.361V265.487H332.335ZM336.901 265.487L334.751 262.305L336.102 260.874L339.275 265.487H336.901ZM339.869 268.227V258.181H341.867V259.409H341.957C342.046 259.212 342.174 259.012 342.343 258.809C342.514 258.603 342.736 258.432 343.008 258.295C343.284 258.156 343.627 258.086 344.036 258.086C344.569 258.086 345.06 258.226 345.51 258.505C345.961 258.781 346.321 259.198 346.59 259.756C346.86 260.311 346.994 261.007 346.994 261.844C346.994 262.659 346.863 263.347 346.6 263.908C346.34 264.466 345.984 264.89 345.534 265.178C345.087 265.464 344.586 265.606 344.031 265.606C343.638 265.606 343.303 265.541 343.027 265.411C342.755 265.281 342.531 265.118 342.357 264.921C342.182 264.722 342.049 264.52 341.957 264.317H341.895V268.227H339.869ZM341.853 261.834C341.853 262.269 341.913 262.648 342.033 262.971C342.154 263.295 342.328 263.547 342.557 263.727C342.785 263.905 343.062 263.994 343.389 263.994C343.719 263.994 343.998 263.903 344.226 263.723C344.454 263.539 344.627 263.285 344.745 262.962C344.865 262.635 344.925 262.259 344.925 261.834C344.925 261.413 344.867 261.042 344.749 260.721C344.632 260.401 344.459 260.151 344.231 259.97C344.003 259.789 343.722 259.699 343.389 259.699C343.059 259.699 342.78 259.786 342.552 259.96C342.327 260.135 342.154 260.382 342.033 260.702C341.913 261.023 341.853 261.4 341.853 261.834ZM352.769 262.377V258.181H354.795V265.487H352.85V264.16H352.774C352.609 264.588 352.334 264.932 351.951 265.192C351.57 265.452 351.106 265.582 350.557 265.582C350.069 265.582 349.639 265.471 349.268 265.249C348.897 265.028 348.607 264.712 348.398 264.303C348.191 263.894 348.087 263.404 348.084 262.833V258.181H350.11V262.472C350.113 262.903 350.229 263.244 350.457 263.494C350.685 263.745 350.991 263.87 351.375 263.87C351.619 263.87 351.848 263.815 352.06 263.704C352.273 263.589 352.444 263.421 352.574 263.199C352.707 262.977 352.772 262.703 352.769 262.377ZM358.18 261.264V265.487H356.154V258.181H358.085V259.47H358.171C358.333 259.045 358.604 258.709 358.984 258.462C359.365 258.211 359.826 258.086 360.368 258.086C360.876 258.086 361.318 258.197 361.696 258.419C362.073 258.641 362.366 258.958 362.575 259.37C362.785 259.78 362.889 260.268 362.889 260.835V265.487H360.863V261.197C360.866 260.75 360.752 260.401 360.521 260.151C360.289 259.897 359.971 259.77 359.565 259.77C359.292 259.77 359.051 259.829 358.842 259.946C358.636 260.063 358.474 260.235 358.356 260.46C358.242 260.682 358.184 260.95 358.18 261.264ZM368.111 258.181V259.703H363.711V258.181H368.111ZM364.71 256.431H366.736V263.242C366.736 263.429 366.765 263.575 366.822 263.68C366.879 263.781 366.958 263.853 367.06 263.894C367.164 263.935 367.285 263.956 367.421 263.956C367.516 263.956 367.611 263.948 367.707 263.932C367.802 263.913 367.875 263.899 367.925 263.889L368.244 265.397C368.143 265.429 368 265.465 367.816 265.506C367.632 265.551 367.408 265.578 367.145 265.587C366.657 265.606 366.229 265.541 365.861 265.392C365.496 265.243 365.213 265.012 365.01 264.698C364.807 264.384 364.707 263.987 364.71 263.509V256.431ZM372.42 265.63C371.669 265.63 371.022 265.478 370.48 265.173C369.941 264.866 369.525 264.431 369.233 263.87C368.942 263.306 368.796 262.638 368.796 261.868C368.796 261.116 368.942 260.457 369.233 259.889C369.525 259.321 369.936 258.879 370.465 258.562C370.998 258.245 371.623 258.086 372.339 258.086C372.821 258.086 373.27 258.164 373.685 258.319C374.104 258.471 374.469 258.701 374.779 259.009C375.093 259.317 375.338 259.703 375.512 260.17C375.686 260.633 375.774 261.175 375.774 261.796V262.353H369.604V261.097H373.866C373.866 260.805 373.803 260.547 373.676 260.322C373.549 260.097 373.373 259.921 373.148 259.794C372.926 259.664 372.668 259.599 372.373 259.599C372.065 259.599 371.792 259.67 371.555 259.813C371.32 259.952 371.136 260.141 371.003 260.379C370.87 260.613 370.801 260.875 370.798 261.164V262.358C370.798 262.719 370.865 263.031 370.998 263.295C371.134 263.558 371.326 263.761 371.574 263.903C371.821 264.046 372.114 264.117 372.454 264.117C372.679 264.117 372.885 264.086 373.072 264.022C373.259 263.959 373.419 263.864 373.552 263.737C373.685 263.61 373.787 263.455 373.857 263.271L375.731 263.394C375.636 263.845 375.441 264.238 375.146 264.574C374.854 264.907 374.477 265.167 374.014 265.354C373.554 265.538 373.023 265.63 372.42 265.63ZM378.861 261.264V265.487H376.834V258.181H378.765V259.47H378.851C379.013 259.045 379.284 258.709 379.664 258.462C380.045 258.211 380.506 258.086 381.048 258.086C381.556 258.086 381.998 258.197 382.376 258.419C382.753 258.641 383.046 258.958 383.256 259.37C383.465 259.78 383.569 260.268 383.569 260.835V265.487H381.543V261.197C381.546 260.75 381.432 260.401 381.201 260.151C380.969 259.897 380.651 259.77 380.245 259.77C379.972 259.77 379.731 259.829 379.522 259.946C379.316 260.063 379.154 260.235 379.037 260.46C378.922 260.682 378.864 260.95 378.861 261.264Z" fill="#0A0A0A"/>
</g>
<defs>
<filter id="filter0_dd_376_702" x="48.7395" y="48.5767" width="467.023" height="69.0229" filterUnits="userSpaceOnUse" color-interpolation-filters="sRGB">
<feFlood flood-opacity="0" result="BackgroundImageFix"/>
<feColorMatrix in="SourceAlpha" type="matrix" values="0 0 0 0 0 0 0 0 0 0 0 0 0 0 0 0 0 0 127 0" result="hardAlpha"/>
<feMorphology radius="0.837143" operator="erode" in="SourceAlpha" result="effect1_dropShadow_376_702"/>
<feOffset dy="0.837143"/>
<feGaussianBlur stdDeviation="0.837143"/>
<feComposite in2="hardAlpha" operator="out"/>
<feColorMatrix type="matrix" values="0 0 0 0 0 0 0 0 0 0 0 0 0 0 0 0 0 0 0.1 0"/>
<feBlend mode="normal" in2="BackgroundImageFix" result="effect1_dropShadow_376_702"/>
<feColorMatrix in="SourceAlpha" type="matrix" values="0 0 0 0 0 0 0 0 0 0 0 0 0 0 0 0 0 0 127 0" result="hardAlpha"/>
<feOffset dy="0.837143"/>
<feGaussianBlur stdDeviation="1.25571"/>
<feComposite in2="hardAlpha" operator="out"/>
<feColorMatrix type="matrix" values="0 0 0 0 0 0 0 0 0 0 0 0 0 0 0 0 0 0 0.1 0"/>
<feBlend mode="normal" in2="effect1_dropShadow_376_702" result="effect2_dropShadow_376_702"/>
<feBlend mode="normal" in="SourceGraphic" in2="effect2_dropShadow_376_702" result="shape"/>
</filter>
<filter id="filter1_dd_376_702" x="48.7395" y="125.969" width="467.023" height="62.0229" filterUnits="userSpaceOnUse" color-interpolation-filters="sRGB">
<feFlood flood-opacity="0" result="BackgroundImageFix"/>
<feColorMatrix in="SourceAlpha" type="matrix" values="0 0 0 0 0 0 0 0 0 0 0 0 0 0 0 0 0 0 127 0" result="hardAlpha"/>
<feMorphology radius="0.837143" operator="erode" in="SourceAlpha" result="effect1_dropShadow_376_702"/>
<feOffset dy="0.837143"/>
<feGaussianBlur stdDeviation="0.837143"/>
<feComposite in2="hardAlpha" operator="out"/>
<feColorMatrix type="matrix" values="0 0 0 0 0 0 0 0 0 0 0 0 0 0 0 0 0 0 0.1 0"/>
<feBlend mode="normal" in2="BackgroundImageFix" result="effect1_dropShadow_376_702"/>
<feColorMatrix in="SourceAlpha" type="matrix" values="0 0 0 0 0 0 0 0 0 0 0 0 0 0 0 0 0 0 127 0" result="hardAlpha"/>
<feOffset dy="0.837143"/>
<feGaussianBlur stdDeviation="1.25571"/>
<feComposite in2="hardAlpha" operator="out"/>
<feColorMatrix type="matrix" values="0 0 0 0 0 0 0 0 0 0 0 0 0 0 0 0 0 0 0.1 0"/>
<feBlend mode="normal" in2="effect1_dropShadow_376_702" result="effect2_dropShadow_376_702"/>
<feBlend mode="normal" in="SourceGraphic" in2="effect2_dropShadow_376_702" result="shape"/>
</filter>
<filter id="filter2_dd_376_702" x="48.7395" y="195.908" width="231.023" height="92.0229" filterUnits="userSpaceOnUse" color-interpolation-filters="sRGB">
<feFlood flood-opacity="0" result="BackgroundImageFix"/>
<feColorMatrix in="SourceAlpha" type="matrix" values="0 0 0 0 0 0 0 0 0 0 0 0 0 0 0 0 0 0 127 0" result="hardAlpha"/>
<feMorphology radius="0.837143" operator="erode" in="SourceAlpha" result="effect1_dropShadow_376_702"/>
<feOffset dy="0.837143"/>
<feGaussianBlur stdDeviation="0.837143"/>
<feComposite in2="hardAlpha" operator="out"/>
<feColorMatrix type="matrix" values="0 0 0 0 0 0 0 0 0 0 0 0 0 0 0 0 0 0 0.1 0"/>
<feBlend mode="normal" in2="BackgroundImageFix" result="effect1_dropShadow_376_702"/>
<feColorMatrix in="SourceAlpha" type="matrix" values="0 0 0 0 0 0 0 0 0 0 0 0 0 0 0 0 0 0 127 0" result="hardAlpha"/>
<feOffset dy="0.837143"/>
<feGaussianBlur stdDeviation="1.25571"/>
<feComposite in2="hardAlpha" operator="out"/>
<feColorMatrix type="matrix" values="0 0 0 0 0 0 0 0 0 0 0 0 0 0 0 0 0 0 0.1 0"/>
<feBlend mode="normal" in2="effect1_dropShadow_376_702" result="effect2_dropShadow_376_702"/>
<feBlend mode="normal" in="SourceGraphic" in2="effect2_dropShadow_376_702" result="shape"/>
</filter>
<filter id="filter3_dd_376_702" x="284.74" y="195.908" width="231.023" height="92.0229" filterUnits="userSpaceOnUse" color-interpolation-filters="sRGB">
<feFlood flood-opacity="0" result="BackgroundImageFix"/>
<feColorMatrix in="SourceAlpha" type="matrix" values="0 0 0 0 0 0 0 0 0 0 0 0 0 0 0 0 0 0 127 0" result="hardAlpha"/>
<feMorphology radius="0.837143" operator="erode" in="SourceAlpha" result="effect1_dropShadow_376_702"/>
<feOffset dy="0.837143"/>
<feGaussianBlur stdDeviation="0.837143"/>
<feComposite in2="hardAlpha" operator="out"/>
<feColorMatrix type="matrix" values="0 0 0 0 0 0 0 0 0 0 0 0 0 0 0 0 0 0 0.1 0"/>
<feBlend mode="normal" in2="BackgroundImageFix" result="effect1_dropShadow_376_702"/>
<feColorMatrix in="SourceAlpha" type="matrix" values="0 0 0 0 0 0 0 0 0 0 0 0 0 0 0 0 0 0 127 0" result="hardAlpha"/>
<feOffset dy="0.837143"/>
<feGaussianBlur stdDeviation="1.25571"/>
<feComposite in2="hardAlpha" operator="out"/>
<feColorMatrix type="matrix" values="0 0 0 0 0 0 0 0 0 0 0 0 0 0 0 0 0 0 0.1 0"/>
<feBlend mode="normal" in2="effect1_dropShadow_376_702" result="effect2_dropShadow_376_702"/>
<feBlend mode="normal" in="SourceGraphic" in2="effect2_dropShadow_376_702" result="shape"/>
</filter>
<linearGradient id="paint0_linear_376_702" x1="64.6436" y1="167.818" x2="357.188" y2="167.818" gradientUnits="userSpaceOnUse">
<stop stop-color="#00C950"/>
<stop offset="1" stop-color="#F97F30"/>
</linearGradient>
<clipPath id="clip0_376_702">
<rect width="16.7429" height="16.7429" fill="white" transform="translate(64.6436 210.975)"/>
</clipPath>
</defs>
</svg>
