<svg width="434" height="405" viewBox="0 0 434 405" fill="none" xmlns="http://www.w3.org/2000/svg">
<path d="M326.564 88.3598L329.773 95.675L331.148 94.7606H346.735L369.198 87.4454L396.245 66.414L405.872 46.7543L413.206 28.009L415.04 11.0925L413.206 3.32001L386.159 4.23441L361.863 12.4641L340.775 25.723L330.232 40.3535L323.814 58.6416L321.98 75.5581L326.564 88.3598Z" fill="#6FAF3A"/>
<path d="M287.354 118.94L296.961 117.565L301.535 112.525V101.068L293.301 80.447L271.801 67.1578L244.812 63.95L241.61 66.6995L252.589 90.5285L258.535 106.109L270.886 114.816L287.354 118.94Z" fill="#6FAF3A"/>
<path fill-rule="evenodd" clip-rule="evenodd" d="M118.031 216.581C122.967 234.021 146.246 236.444 156.716 226.275C159.852 223.228 162.943 220.16 165.554 216.606C165.909 216.122 166.261 215.635 166.613 215.147C168.564 212.446 170.529 209.725 173.092 207.551C175.213 205.751 176.526 206.303 177.319 208.932C179.376 215.75 183.781 220.949 190.445 222.913C200.295 225.818 205.985 223.437 213.202 215.62C217.973 210.451 221.4 204.417 224.829 198.38C225.553 197.105 226.277 195.83 227.014 194.564C227.833 193.155 228.828 191.471 230.73 191.884C232.613 192.293 232.893 194.234 233.066 195.85C233.25 197.564 233.364 199.284 233.477 201.005C233.572 202.445 233.667 203.886 233.803 205.322C234.556 213.252 238.25 219.467 245.767 222.326C253.646 225.321 261.39 224.926 268.109 218.772C273.386 213.938 277.936 208.527 281.982 202.656C282.062 202.54 282.142 202.419 282.223 202.296C282.812 201.397 283.459 200.411 284.737 200.767C286.22 201.181 286.204 202.535 286.189 203.729C286.188 203.845 286.187 203.96 286.187 204.072C286.187 206.51 286.157 208.949 286.128 211.388C286.094 214.195 286.059 217.003 286.071 219.81L286.074 220.577C286.089 224.906 286.105 229.241 286.739 233.538C286.99 235.235 287.739 236.794 289.471 237.336C289.471 237.336 297.383 240.794 302.125 241.348C306.866 241.902 307.842 239.817 308.315 235.319C309.011 228.694 309.447 222.05 309.828 215.395C309.915 213.888 309.981 212.377 310.047 210.866C310.295 205.181 310.543 199.482 311.883 193.91C311.974 193.529 312.036 193.112 312.1 192.687C312.352 190.999 312.624 189.185 314.816 189.027C316.74 188.889 317.318 190.456 317.863 191.936C318.025 192.376 318.185 192.809 318.376 193.187C324.256 204.805 332.423 214.531 342.882 222.213C349.628 227.168 357.716 226.17 363.753 220.22C366.453 217.559 366.383 216.876 363.344 214.708C360.048 212.356 357.001 209.748 354.291 206.694C346.142 197.512 340.762 186.71 335.38 175.906C334.092 173.319 332.803 170.732 331.476 168.167C330.582 166.438 331.398 165.15 332.293 163.738L332.344 163.657C338.368 154.143 346.186 146.186 354.383 138.618C355.057 137.995 355.727 137.365 356.397 136.734C360.486 132.887 364.6 129.016 369.915 126.713C371.727 125.928 371.569 124.292 370.703 122.8C369.489 120.708 367.44 119.899 365.189 119.773C358.881 119.419 353.039 120.801 347.926 124.714C340.352 130.511 333.576 137.177 326.834 143.886C326.525 144.193 326.218 144.504 325.912 144.814C324.454 146.293 322.995 147.773 321.235 148.92C319.106 150.308 317.641 149.708 317.098 147.329C316.112 143.007 326.994 118.243 332.706 105.245C334.246 101.739 335.411 99.0879 335.865 97.9265C336.239 96.9685 336.616 96.0122 336.997 95.0574C339.532 95.5287 342.017 95.711 344.503 95.8796C344.827 95.9015 345.16 95.8651 345.483 95.8177C366.606 92.7235 391.672 80.4198 401.44 61.1176C404.713 54.651 406.959 47.8196 409.205 40.9879C410.094 38.284 410.983 35.5802 411.936 32.8988C415.907 21.7203 420.86 11.2522 431.496 4.69712C431.78 4.5222 432.003 4.24761 432.253 3.93805C432.379 3.78214 432.513 3.61729 432.665 3.45191C431.192 2.16424 429.507 1.97554 427.69 1.77203C426.772 1.66926 425.82 1.5627 424.845 1.30891C424.435 1.24509 424.025 1.16956 423.615 1.09403C422.733 0.931412 421.85 0.768772 420.962 0.723065C406.129 -0.0401199 391.476 1.09412 377.114 5.07087C364.469 8.57235 351.872 15.2396 341.712 23.8021C323.442 39.2004 322.097 58.2017 321.268 69.9167L321.235 70.3925C320.647 78.6718 323.703 84.275 326.394 89.2086C327.411 91.0739 328.377 92.8435 329.073 94.6259C319.111 114.722 309.389 137.231 306.446 148.857C305.817 147.727 305.237 146.578 304.661 145.436C302.224 140.604 299.854 135.907 294.093 133.422C293.891 134.45 293.675 135.43 293.465 136.381C293.03 138.352 292.622 140.196 292.432 142.061C290.795 158.091 286.648 173.386 279.116 187.672C275.123 195.245 270.591 202.481 263.424 207.558C259.744 210.165 257.445 209.028 257.22 204.509C256.867 197.403 257.255 190.312 258.137 183.256C258.849 177.562 259.644 171.878 260.438 166.195C261.864 155.995 263.291 145.788 264.241 135.528C264.719 130.363 262.263 127.75 256.964 127.749C252.711 127.748 248.812 129.09 245.061 130.994C242.128 132.483 240.377 134.686 239.829 138.032C239.427 140.487 238.689 142.936 237.758 145.25C230.526 163.214 221.748 180.436 212.416 197.382C211.366 199.288 210.086 201.087 208.396 202.528C207.447 203.338 206.419 204.005 205.13 203.417C203.897 202.855 203.479 201.719 203.424 200.455C203.377 199.365 203.355 198.265 203.436 197.178C204.298 185.718 206.582 174.501 209.315 163.367C210.011 160.533 210.743 157.708 211.475 154.884C212.661 150.31 213.847 145.734 214.877 141.126C216.525 133.755 214.23 129.363 208.242 128.001C206.361 127.574 204.264 127.441 202.38 127.789C201.773 127.901 201.193 128.007 200.64 128.107C191.035 129.853 189.368 130.156 186.06 139.941C183.995 146.048 182.338 152.276 180.68 158.504C178.688 165.989 176.696 173.475 173.996 180.753C168.846 194.638 161.919 207.413 151.153 217.818C145.781 223.01 142.269 221.959 140.231 214.895C138.645 209.398 137.851 203.782 137.344 198.141C136.189 185.304 136.709 172.747 144.907 161.814C145.577 160.92 146.172 159.967 146.766 159.015C146.983 158.668 147.201 158.319 147.422 157.975C161.832 135.466 174.033 112.062 177.549 85.0374C178.514 77.6184 178.783 70.2282 177.833 62.8222C177.26 58.353 175.713 54.3074 171.503 51.8914C164.375 47.8004 154.671 47.8617 148.176 54.3278C143.898 58.5869 140.12 63.2726 137.15 68.5365C128.816 83.3097 123.452 99.2221 119.638 115.659C116.948 127.247 115.288 139.009 113.994 150.859C112.434 165.157 112.347 179.443 113.376 193.704C113.922 201.261 114.803 208.951 118.031 216.581ZM339.396 94.3751C338.618 94.5492 337.841 94.7234 337.062 94.8927C339.448 88.9104 341.958 82.9893 344.614 77.109C348.429 68.6611 361.017 66.0113 370.53 64.1138C370.561 64.1078 370.591 64.1018 370.623 64.0957L370.687 64.0834C371.465 63.9343 372.551 63.7263 372.638 62.494C369.39 61.2072 359.022 59.6828 355.217 59.7031C357.675 55.0024 360.676 51.251 363.616 47.576C364.414 46.5786 365.208 45.5868 365.985 44.5832C368.369 41.5023 373.494 40.0914 378.317 38.7637C381.251 37.9559 384.073 37.1789 386.099 36.0752C384.811 35.2987 382.343 35.4773 379.968 35.6492C377.844 35.8029 375.794 35.9513 374.729 35.4058C375.599 33.3614 377.147 32.0328 378.661 30.7325C379.185 30.2831 379.704 29.8372 380.19 29.3662C382.226 27.3943 384.425 25.5813 386.636 23.8021C386.948 23.5511 387.262 23.3034 387.576 23.0559C389.298 21.6993 391.013 20.3478 392.259 18.4985C374.304 28.8299 360.317 43.2676 348.441 60.0468C343.489 67.0446 336.277 80.1064 329.176 94.4177C328.892 91.9722 328.229 90.123 327.52 88.1457C326.168 84.3724 324.647 80.1324 325.276 70.3925C326.714 58.8353 329.52 44.4701 336.667 35.0722C343.309 26.3373 351.775 19.9607 361.653 15.4192C375.532 9.0376 389.092 5.24948 404.525 5.88841C407.106 5.99525 408.958 7.12826 410.769 8.95213C414.17 12.3764 413.002 15.4792 411.515 19.4277C411.394 19.7488 411.271 20.0755 411.148 20.4084C409.416 25.1015 407.798 29.8357 406.181 34.5686C404.373 39.8574 402.566 45.1452 400.601 50.372C392.206 72.7068 369.302 88.7765 345.381 93.1195C343.376 93.4835 341.386 93.9293 339.396 94.3751ZM4.18824 172.491C3.89583 175.234 3.5962 177.976 3.29656 180.718C2.62375 186.876 1.95094 193.033 1.35994 199.199C0.210325 211.192 0.0193784 223.186 1.99967 235.126C2.7853 239.864 4.79829 241.194 9.52345 240.342C15.0332 239.349 20.199 237.32 25.3622 235.291C26.5996 234.805 27.8368 234.319 29.0785 233.848C31.5476 232.91 32.7839 230.983 32.7804 228.226C32.7769 225.501 32.8462 222.759 33.1407 220.052C34.5331 207.252 35.9649 194.455 37.4888 181.67C37.6971 179.922 37.7318 178.16 37.7665 176.399C37.8222 173.569 37.8779 170.741 38.6539 167.978C39.6741 164.345 41.2414 161.047 45.544 160.603C55.3074 159.595 64.0911 155.951 72.5394 151.175C88.1636 142.343 99.6875 130.012 105.585 112.856C108.283 105.007 110.032 96.8416 107.652 88.7333C102.597 71.5152 90.777 61.118 73.477 56.804C61.9799 53.9371 50.2954 54.0378 38.6193 55.0374C31.8812 55.6142 25.1545 56.5891 18.6923 58.7741C13.1547 60.6465 7.83177 62.8354 4.31433 67.9345C2.01032 71.2745 3.05628 74.1633 7.0975 74.7332C9.01771 75.0041 11.0345 74.8584 12.9782 74.6403C17.1141 74.1762 17.7519 74.9459 16.8382 79.1215C15.9987 82.9578 15.3048 86.8318 14.7049 90.7135C14.3739 92.8557 14.0389 94.9972 13.7039 97.1387C11.9639 108.261 10.2241 119.382 9.04081 130.589C8.12013 139.309 7.08224 148.016 6.02662 156.872C5.41336 162.017 4.79397 167.214 4.18824 172.491ZM187.946 359.163C188.444 356.05 188.971 352.941 189.497 349.832C190.666 342.931 191.835 336.03 192.692 329.091C194.916 311.078 198.387 293.306 202.241 275.595C203.102 271.638 204.027 267.694 204.951 263.751C205.447 261.636 205.943 259.52 206.429 257.403C207.284 253.678 206.66 250.228 204.348 247.156C204.306 247.101 204.264 247.044 204.222 246.987C203.546 246.077 202.738 244.991 201.425 245.865C201.122 246.067 200.818 246.268 200.514 246.469C195.631 249.702 190.762 252.926 188.57 258.912C184.5 270.028 181.643 281.482 179.605 293.085C177.269 306.377 175.164 319.711 173.059 333.044C171.93 340.2 170.8 347.356 169.635 354.505C169.569 354.911 169.537 355.37 169.505 355.842C169.386 357.593 169.255 359.523 167.28 359.607C165.472 359.684 165.194 357.76 164.951 356.077C164.888 355.642 164.828 355.223 164.744 354.858C162.824 346.546 160.946 338.224 159.068 329.902C156.55 318.742 154.031 307.582 151.412 296.446C149.038 286.35 146.382 276.285 142.275 266.727C138.107 257.028 127.839 252.077 118.429 254.682C112.866 256.222 110.158 260.489 107.903 265.196C98.8834 284.019 94.5802 304.27 90.2846 324.485L90.2355 324.716C87.2402 338.812 84.8512 353.038 83.8609 367.445C83.7615 368.891 83.6215 370.336 83.4814 371.782C83.0321 376.42 82.5822 381.062 83.4732 385.726L83.4854 385.789C83.7948 387.41 84.1772 389.413 85.9965 389.583C90.6082 390.012 91.8919 393.101 92.6109 396.862C93.0186 398.995 94.3543 399.68 96.4162 399.506C103.962 398.868 105.344 397.584 106.29 390.167C106.299 390.099 106.307 390.03 106.316 389.962C106.323 389.904 106.33 389.846 106.336 389.787C106.386 389.371 106.435 388.954 106.525 388.546C109.054 377.014 110.928 365.366 112.802 353.718C113.596 348.782 114.39 343.845 115.233 338.918C117.979 322.886 121.098 306.942 124.711 291.09C124.743 290.948 124.774 290.801 124.806 290.65C125.07 289.388 125.382 287.899 126.934 287.843C128.639 287.781 129.001 289.243 129.327 290.562C129.378 290.765 129.427 290.966 129.481 291.156C132.195 300.828 133.79 310.725 135.386 320.622L135.392 320.659C135.756 322.918 136.107 325.18 136.458 327.442C137.43 333.697 138.402 339.952 139.644 346.152C141.765 356.74 144.229 367.261 146.711 377.772L146.741 377.901C148.462 385.189 150.194 392.523 154.597 398.809C156.967 402.192 160.109 404.338 164.428 404.452C172.51 404.664 175.858 402.388 179.104 394.579C183.545 383.893 185.553 372.61 187.647 360.839C187.746 360.281 187.846 359.723 187.946 359.163ZM235.716 330.837C235.883 330.23 236.053 329.624 236.222 329.018C237.378 324.893 238.534 320.767 238.717 316.442C238.836 313.636 237.555 311.617 235.092 310.344C228.157 306.758 218.449 310.256 215.702 317.499C214 321.987 212.535 326.576 211.201 331.188C207.09 345.406 204.017 359.783 204.945 374.739C205.137 377.843 205.846 380.786 207.079 383.602C211.232 393.085 223.891 396.53 231.953 390.033C238.943 384.399 244.142 377.255 247.204 368.713L247.254 368.574C247.699 367.327 248.132 366.113 249.66 366.028C251.229 365.941 251.911 367.223 252.501 368.393C253.441 370.254 253.547 372.283 253.655 374.335L253.661 374.45C253.96 380.101 254.803 385.443 259.691 389.409C266.025 394.547 276.447 395.297 282.853 389.249C283.115 389.002 283.378 388.755 283.64 388.509L283.656 388.493C285.702 386.571 287.744 384.652 289.504 382.478C296.51 373.822 305.084 361.752 307.478 350.697C308.101 347.82 308.666 344.764 306.7 341.81C304.497 343.807 303.233 346.2 301.995 348.546C301.707 349.092 301.42 349.636 301.123 350.171C296.349 358.773 288.986 370.23 282.23 377.511C281.97 377.791 281.711 378.099 281.447 378.412C280.128 379.979 278.684 381.693 276.369 380.877C273.833 379.984 273.796 377.494 273.762 375.286C273.757 374.959 273.753 374.639 273.74 374.331C273.289 363.481 274.473 352.758 276.392 342.078C276.657 340.602 276.929 339.128 277.202 337.652C278.494 330.65 279.789 323.641 280.32 316.526C280.651 312.093 278.485 309.792 274.026 309.602C272.728 309.546 271.397 309.655 270.116 309.884C264.157 310.951 262.005 315.659 260.121 320.546C255.244 333.201 249.611 345.51 243.283 357.502C240.528 362.722 237.732 367.93 233.892 372.466C232.904 373.633 231.679 374.837 229.966 374.141C228.43 373.518 228.353 371.955 228.292 370.503C228.053 364.78 229.006 359.154 230.152 353.615C231.232 348.396 232.558 343.229 233.929 337.882C234.522 335.574 235.123 333.231 235.716 330.837ZM69.5838 93.7623C69.7907 82.5146 64.8641 74.426 53.8781 70.0559C50.3129 68.9896 46.9267 68.727 43.4877 68.9675C41.0508 69.138 39.7405 70.3815 39.2539 72.7925C38.9024 74.5344 38.8131 76.2625 38.7667 78.0123C38.5521 86.1223 37.5787 94.1503 36.3233 102.162L36.201 102.943C34.2087 115.655 32.2151 128.374 31.4666 141.235C31.4342 141.792 31.2942 142.398 31.1522 143.012C30.7696 144.669 30.3727 146.387 32.03 147.375C34.0519 148.581 36.15 147.219 37.9527 146.048L38.0224 146.002C38.2519 145.853 38.4766 145.708 38.6955 145.572C57.9813 133.608 69.1601 116.788 69.5838 93.7623ZM152.184 65.4904C155.738 64.7684 155.875 67.1915 155.984 69.1289C155.997 69.353 156.009 69.5705 156.026 69.776C156.519 75.6703 156.369 81.5799 155.493 87.4617C152.454 107.872 144.418 126.518 135.37 144.797C135.229 145.081 135.096 145.402 134.959 145.734C134.35 147.203 133.654 148.886 131.825 148.492C129.962 148.09 130.151 146.473 130.325 144.981C130.379 144.522 130.431 144.074 130.421 143.677C130.19 134.089 132.432 124.854 134.666 115.657C134.829 114.983 134.993 114.31 135.155 113.636C138.464 99.9242 142.112 86.2875 147.612 73.2496C147.675 73.1008 147.737 72.9517 147.8 72.8025C148.874 70.2449 149.97 67.6369 152.184 65.4904Z" fill="#184D36"/>
<path d="M37.9527 146.048C36.15 147.219 34.0519 148.581 32.03 147.375C30.3727 146.387 30.7696 144.669 31.1522 143.012C31.2942 142.398 31.4342 141.792 31.4666 141.235C32.2151 128.374 34.2087 115.655 36.201 102.943L36.3233 102.162C37.5787 94.1503 38.5521 86.1223 38.7667 78.0123C38.8131 76.2625 38.9024 74.5344 39.2539 72.7925C39.7405 70.3815 41.0508 69.138 43.4877 68.9675C46.9267 68.727 50.3129 68.9896 53.8781 70.0559C64.8641 74.426 69.7907 82.5146 69.5838 93.7623C69.1601 116.788 57.9813 133.608 38.6955 145.572C38.4766 145.708 38.2519 145.853 38.0224 146.002M37.9527 146.048L38.0224 146.002M37.9527 146.048L37.9555 146.046C37.9704 146.036 37.9853 146.026 38.0002 146.017C38.0076 146.012 38.015 146.007 38.0224 146.002M118.031 216.581C122.967 234.021 146.246 236.444 156.716 226.275C159.852 223.228 162.943 220.16 165.554 216.606C165.909 216.122 166.261 215.635 166.613 215.147C168.564 212.446 170.529 209.725 173.092 207.551C175.213 205.751 176.526 206.303 177.319 208.932C179.376 215.75 183.781 220.949 190.445 222.913C200.295 225.818 205.985 223.437 213.202 215.62C217.973 210.451 221.4 204.417 224.829 198.38C225.553 197.105 226.277 195.83 227.014 194.564C227.833 193.155 228.828 191.471 230.73 191.884C232.613 192.293 232.893 194.234 233.066 195.85C233.25 197.564 233.364 199.284 233.477 201.005C233.572 202.445 233.667 203.886 233.803 205.322C234.556 213.252 238.25 219.467 245.767 222.326C253.646 225.321 261.39 224.926 268.109 218.772C273.386 213.938 277.936 208.527 281.982 202.656C282.062 202.54 282.142 202.419 282.223 202.296C282.812 201.397 283.459 200.411 284.737 200.767C286.22 201.181 286.204 202.535 286.189 203.729C286.188 203.845 286.187 203.96 286.187 204.072C286.187 206.51 286.157 208.949 286.128 211.388C286.094 214.195 286.059 217.003 286.071 219.81L286.074 220.577C286.089 224.906 286.105 229.241 286.739 233.538C286.99 235.235 287.739 236.794 289.471 237.336C289.471 237.336 297.383 240.794 302.125 241.348C306.866 241.902 307.842 239.817 308.315 235.319C309.011 228.694 309.447 222.05 309.828 215.395C309.915 213.888 309.981 212.377 310.047 210.866C310.295 205.181 310.543 199.482 311.883 193.91C311.974 193.529 312.036 193.112 312.1 192.687C312.352 190.999 312.624 189.185 314.816 189.027C316.74 188.889 317.318 190.456 317.863 191.936C318.025 192.376 318.185 192.809 318.376 193.187C324.256 204.805 332.423 214.531 342.882 222.213C349.628 227.168 357.716 226.17 363.753 220.22C366.453 217.559 366.383 216.876 363.344 214.708C360.048 212.356 357.001 209.748 354.291 206.694C346.142 197.512 340.762 186.71 335.38 175.906C334.092 173.319 332.803 170.732 331.476 168.167C330.582 166.438 331.398 165.15 332.293 163.738L332.344 163.657C338.368 154.143 346.186 146.186 354.383 138.618C355.057 137.995 355.727 137.365 356.397 136.734C360.486 132.887 364.6 129.016 369.915 126.713C371.727 125.928 371.569 124.292 370.703 122.8C369.489 120.708 367.44 119.899 365.189 119.773C358.881 119.419 353.039 120.801 347.926 124.714C340.352 130.511 333.576 137.177 326.834 143.886C326.525 144.193 326.218 144.504 325.912 144.814C324.454 146.293 322.995 147.773 321.235 148.92C319.106 150.308 317.641 149.708 317.098 147.329C316.112 143.007 326.994 118.243 332.706 105.245C334.246 101.739 335.411 99.0879 335.865 97.9265C336.239 96.9685 336.616 96.0122 336.997 95.0574C339.532 95.5287 342.017 95.711 344.503 95.8796C344.827 95.9015 345.16 95.8651 345.483 95.8177C366.606 92.7235 391.672 80.4198 401.44 61.1176C404.713 54.651 406.959 47.8196 409.205 40.9879C410.094 38.284 410.983 35.5802 411.936 32.8988C415.907 21.7203 420.86 11.2522 431.496 4.69712C431.78 4.5222 432.003 4.24761 432.253 3.93805C432.379 3.78214 432.513 3.61729 432.665 3.45191C431.192 2.16424 429.507 1.97554 427.69 1.77203C426.772 1.66926 425.82 1.5627 424.845 1.30891C424.435 1.24509 424.025 1.16956 423.615 1.09403C422.733 0.931412 421.85 0.768772 420.962 0.723065C406.129 -0.0401199 391.476 1.09412 377.114 5.07087C364.469 8.57235 351.872 15.2396 341.712 23.8021C323.442 39.2004 322.097 58.2017 321.268 69.9167L321.235 70.3925C320.647 78.6718 323.703 84.275 326.394 89.2086C327.411 91.0739 328.377 92.8435 329.073 94.6259C319.111 114.722 309.389 137.231 306.446 148.857C305.817 147.727 305.237 146.578 304.661 145.436C302.224 140.604 299.854 135.907 294.093 133.422C293.891 134.45 293.675 135.43 293.465 136.381C293.03 138.352 292.622 140.196 292.432 142.061C290.795 158.091 286.648 173.386 279.116 187.672C275.123 195.245 270.591 202.481 263.424 207.558C259.744 210.165 257.445 209.028 257.22 204.509C256.867 197.403 257.255 190.312 258.137 183.256C258.849 177.562 259.644 171.878 260.438 166.195C261.864 155.995 263.291 145.788 264.241 135.528C264.719 130.363 262.263 127.75 256.964 127.749C252.711 127.748 248.812 129.09 245.061 130.994C242.128 132.483 240.377 134.686 239.829 138.032C239.427 140.487 238.689 142.936 237.758 145.25C230.526 163.214 221.748 180.436 212.416 197.382C211.366 199.288 210.086 201.087 208.396 202.528C207.447 203.338 206.419 204.005 205.13 203.417C203.897 202.855 203.479 201.719 203.424 200.455C203.377 199.365 203.355 198.265 203.436 197.178C204.298 185.718 206.582 174.501 209.315 163.367C210.011 160.533 210.743 157.708 211.475 154.884C212.661 150.31 213.847 145.734 214.877 141.126C216.525 133.755 214.23 129.363 208.242 128.001C206.361 127.574 204.264 127.441 202.38 127.789C201.773 127.901 201.193 128.007 200.64 128.107C191.035 129.853 189.368 130.156 186.06 139.941C183.995 146.048 182.338 152.276 180.68 158.504C178.688 165.989 176.696 173.475 173.996 180.753C168.846 194.638 161.919 207.413 151.153 217.818C145.781 223.01 142.269 221.959 140.231 214.895C138.645 209.398 137.851 203.782 137.344 198.141C136.189 185.304 136.709 172.747 144.907 161.814C145.577 160.92 146.172 159.967 146.766 159.015C146.983 158.668 147.201 158.319 147.422 157.975C161.832 135.466 174.033 112.062 177.549 85.0374C178.514 77.6184 178.783 70.2282 177.833 62.8222C177.26 58.353 175.713 54.3074 171.503 51.8914C164.375 47.8004 154.671 47.8617 148.176 54.3278C143.898 58.5869 140.12 63.2726 137.15 68.5365C128.816 83.3097 123.452 99.2221 119.638 115.659C116.948 127.247 115.288 139.009 113.994 150.859C112.434 165.157 112.347 179.443 113.376 193.704C113.922 201.261 114.803 208.951 118.031 216.581ZM339.396 94.3751C338.618 94.5492 337.841 94.7234 337.062 94.8927C339.448 88.9104 341.958 82.9893 344.614 77.109C348.429 68.6611 361.017 66.0113 370.53 64.1138C370.561 64.1078 370.591 64.1018 370.623 64.0957L370.687 64.0834C371.465 63.9343 372.551 63.7263 372.638 62.494C369.39 61.2072 359.022 59.6828 355.217 59.7031C357.675 55.0024 360.676 51.251 363.616 47.576C364.414 46.5786 365.208 45.5868 365.985 44.5832C368.369 41.5023 373.494 40.0914 378.317 38.7637C381.251 37.9559 384.073 37.1789 386.099 36.0752C384.811 35.2987 382.343 35.4773 379.968 35.6492C377.844 35.8029 375.794 35.9513 374.729 35.4058C375.599 33.3614 377.147 32.0328 378.661 30.7325C379.185 30.2831 379.704 29.8372 380.19 29.3662C382.226 27.3943 384.425 25.5813 386.636 23.8021C386.948 23.5511 387.262 23.3034 387.576 23.0559C389.298 21.6993 391.013 20.3478 392.259 18.4985C374.304 28.8299 360.317 43.2676 348.441 60.0468C343.489 67.0446 336.277 80.1064 329.176 94.4177C328.892 91.9722 328.229 90.123 327.52 88.1457C326.168 84.3724 324.647 80.1324 325.276 70.3925C326.714 58.8353 329.52 44.4701 336.667 35.0722C343.309 26.3373 351.775 19.9607 361.653 15.4192C375.532 9.0376 389.092 5.24948 404.525 5.88841C407.106 5.99525 408.958 7.12826 410.769 8.95213C414.17 12.3764 413.002 15.4792 411.515 19.4277C411.394 19.7488 411.271 20.0755 411.148 20.4084C409.416 25.1015 407.798 29.8357 406.181 34.5686C404.373 39.8574 402.566 45.1452 400.601 50.372C392.206 72.7068 369.302 88.7765 345.381 93.1195C343.376 93.4835 341.386 93.9293 339.396 94.3751ZM4.18824 172.491C3.89583 175.234 3.5962 177.976 3.29656 180.718C2.62375 186.876 1.95094 193.033 1.35994 199.199C0.210325 211.192 0.0193784 223.186 1.99967 235.126C2.7853 239.864 4.79829 241.194 9.52345 240.342C15.0332 239.349 20.199 237.32 25.3622 235.291C26.5996 234.805 27.8368 234.319 29.0785 233.848C31.5476 232.91 32.7839 230.983 32.7804 228.226C32.7769 225.501 32.8462 222.759 33.1407 220.052C34.5331 207.252 35.9649 194.455 37.4888 181.67C37.6971 179.922 37.7318 178.16 37.7665 176.399C37.8222 173.569 37.8779 170.741 38.6539 167.978C39.6741 164.345 41.2414 161.047 45.544 160.603C55.3074 159.595 64.0911 155.951 72.5394 151.175C88.1636 142.343 99.6875 130.012 105.585 112.856C108.283 105.007 110.032 96.8416 107.652 88.7333C102.597 71.5152 90.777 61.118 73.477 56.804C61.9799 53.9371 50.2954 54.0378 38.6193 55.0374C31.8812 55.6142 25.1545 56.5891 18.6923 58.7741C13.1547 60.6465 7.83177 62.8354 4.31433 67.9345C2.01032 71.2745 3.05628 74.1633 7.0975 74.7332C9.01771 75.0041 11.0345 74.8584 12.9782 74.6403C17.1141 74.1762 17.7519 74.9459 16.8382 79.1215C15.9987 82.9578 15.3048 86.8318 14.7049 90.7135C14.3739 92.8557 14.0389 94.9972 13.7039 97.1387C11.9639 108.261 10.2241 119.382 9.04081 130.589C8.12013 139.309 7.08224 148.016 6.02662 156.872C5.41336 162.017 4.79397 167.214 4.18824 172.491ZM187.946 359.163C188.444 356.05 188.971 352.941 189.497 349.832C190.666 342.931 191.835 336.03 192.692 329.091C194.916 311.078 198.387 293.306 202.241 275.595C203.102 271.638 204.027 267.694 204.951 263.751C205.447 261.636 205.943 259.52 206.429 257.403C207.284 253.678 206.66 250.228 204.348 247.156C204.306 247.101 204.264 247.044 204.222 246.987C203.546 246.077 202.738 244.991 201.425 245.865C201.122 246.067 200.818 246.268 200.514 246.469C195.631 249.702 190.762 252.926 188.57 258.912C184.5 270.028 181.643 281.482 179.605 293.085C177.269 306.377 175.164 319.711 173.059 333.044C171.93 340.2 170.8 347.356 169.635 354.505C169.569 354.911 169.537 355.37 169.505 355.842C169.386 357.593 169.255 359.523 167.28 359.607C165.472 359.684 165.194 357.76 164.951 356.077C164.888 355.642 164.828 355.223 164.744 354.858C162.824 346.546 160.946 338.224 159.068 329.902C156.55 318.742 154.031 307.582 151.412 296.446C149.038 286.35 146.382 276.285 142.275 266.727C138.107 257.028 127.839 252.077 118.429 254.682C112.866 256.222 110.158 260.489 107.903 265.196C98.8834 284.019 94.5802 304.27 90.2846 324.485L90.2355 324.716C87.2402 338.812 84.8512 353.038 83.8609 367.445C83.7615 368.891 83.6215 370.336 83.4814 371.782C83.0321 376.42 82.5822 381.062 83.4732 385.726L83.4854 385.789C83.7948 387.41 84.1772 389.413 85.9965 389.583C90.6082 390.012 91.8919 393.101 92.6109 396.862C93.0186 398.995 94.3543 399.68 96.4162 399.506C103.962 398.868 105.344 397.584 106.29 390.167C106.299 390.099 106.307 390.03 106.316 389.962C106.323 389.904 106.33 389.846 106.336 389.787C106.386 389.371 106.435 388.954 106.525 388.546C109.054 377.014 110.928 365.366 112.802 353.718C113.596 348.782 114.39 343.845 115.233 338.918C117.979 322.886 121.098 306.942 124.711 291.09C124.743 290.948 124.774 290.801 124.806 290.65C125.07 289.388 125.382 287.899 126.934 287.843C128.639 287.781 129.001 289.243 129.327 290.562C129.378 290.765 129.427 290.966 129.481 291.156C132.195 300.828 133.79 310.725 135.386 320.622L135.392 320.659C135.756 322.918 136.107 325.18 136.458 327.442C137.43 333.697 138.402 339.952 139.644 346.152C141.765 356.74 144.229 367.261 146.711 377.772L146.741 377.901C148.462 385.189 150.194 392.523 154.597 398.809C156.967 402.192 160.109 404.338 164.428 404.452C172.51 404.664 175.858 402.388 179.104 394.579C183.545 383.893 185.553 372.61 187.647 360.839C187.746 360.281 187.846 359.723 187.946 359.163ZM235.716 330.837C235.883 330.23 236.053 329.624 236.222 329.018C237.378 324.893 238.534 320.767 238.717 316.442C238.836 313.636 237.555 311.617 235.092 310.344C228.157 306.758 218.449 310.256 215.702 317.499C214 321.987 212.535 326.576 211.201 331.188C207.09 345.406 204.017 359.783 204.945 374.739C205.137 377.843 205.846 380.786 207.079 383.602C211.232 393.085 223.891 396.53 231.953 390.033C238.943 384.399 244.142 377.255 247.204 368.713L247.254 368.574C247.699 367.327 248.132 366.113 249.66 366.028C251.229 365.941 251.911 367.223 252.501 368.393C253.441 370.254 253.547 372.283 253.655 374.335L253.661 374.45C253.96 380.101 254.803 385.443 259.691 389.409C266.025 394.547 276.447 395.297 282.853 389.249C283.115 389.002 283.378 388.755 283.64 388.509L283.656 388.493C285.702 386.571 287.744 384.652 289.504 382.478C296.51 373.822 305.084 361.752 307.478 350.697C308.101 347.82 308.666 344.764 306.7 341.81C304.497 343.807 303.233 346.2 301.995 348.546C301.707 349.092 301.42 349.636 301.123 350.171C296.349 358.773 288.986 370.23 282.23 377.511C281.97 377.791 281.711 378.099 281.447 378.412C280.128 379.979 278.684 381.693 276.369 380.877C273.833 379.984 273.796 377.494 273.762 375.286C273.757 374.959 273.753 374.639 273.74 374.331C273.289 363.481 274.473 352.758 276.392 342.078C276.657 340.602 276.929 339.128 277.202 337.652C278.494 330.65 279.789 323.641 280.32 316.526C280.651 312.093 278.485 309.792 274.026 309.602C272.728 309.546 271.397 309.655 270.116 309.884C264.157 310.951 262.005 315.659 260.121 320.546C255.244 333.201 249.611 345.51 243.283 357.502C240.528 362.722 237.732 367.93 233.892 372.466C232.904 373.633 231.679 374.837 229.966 374.141C228.43 373.518 228.353 371.955 228.292 370.503C228.053 364.78 229.006 359.154 230.152 353.615C231.232 348.396 232.558 343.229 233.929 337.882C234.522 335.574 235.123 333.231 235.716 330.837ZM152.184 65.4904C155.738 64.7684 155.875 67.1915 155.984 69.1289C155.997 69.353 156.009 69.5705 156.026 69.776C156.519 75.6703 156.369 81.5799 155.493 87.4617C152.454 107.872 144.418 126.518 135.37 144.797C135.229 145.081 135.096 145.402 134.959 145.734C134.35 147.203 133.654 148.886 131.825 148.492C129.962 148.09 130.151 146.473 130.325 144.981C130.379 144.522 130.431 144.074 130.421 143.677C130.19 134.089 132.432 124.854 134.666 115.657C134.829 114.983 134.993 114.31 135.155 113.636C138.464 99.9242 142.112 86.2875 147.612 73.2496C147.675 73.1008 147.737 72.9517 147.8 72.8025C148.874 70.2449 149.97 67.6369 152.184 65.4904Z" stroke="#184D36"/>
<path fill-rule="evenodd" clip-rule="evenodd" d="M118.031 216.581C122.967 234.021 146.246 236.444 156.716 226.275C159.852 223.228 162.943 220.16 165.554 216.606C165.91 216.121 166.263 215.632 166.617 215.142C168.567 212.442 170.529 209.725 173.092 207.551C175.213 205.751 176.526 206.303 177.319 208.932C179.376 215.75 183.781 220.949 190.445 222.913C200.295 225.818 205.985 223.437 213.202 215.62C217.973 210.451 221.4 204.417 224.829 198.38C225.553 197.105 226.277 195.831 227.014 194.564C227.833 193.155 228.828 191.471 230.73 191.884C232.613 192.293 232.893 194.234 233.066 195.85C233.25 197.564 233.364 199.284 233.477 201.005C233.572 202.445 233.667 203.886 233.803 205.322C234.556 213.252 238.25 219.467 245.767 222.326C253.646 225.321 261.39 224.926 268.109 218.772C273.386 213.938 277.936 208.527 281.982 202.656C282.062 202.54 282.142 202.419 282.223 202.295C282.812 201.397 283.459 200.411 284.737 200.767C286.22 201.181 286.204 202.536 286.189 203.729C286.188 203.845 286.187 203.96 286.187 204.072C286.187 206.511 286.157 208.95 286.128 211.389C286.094 214.196 286.059 217.003 286.071 219.81L286.074 220.577C286.089 224.906 286.105 229.241 286.739 233.538C286.99 235.235 287.739 236.794 289.471 237.336C289.471 237.336 297.383 240.794 302.124 241.348C306.866 241.902 307.842 239.817 308.315 235.319C309.011 228.694 309.447 222.05 309.828 215.395C309.915 213.888 309.981 212.377 310.047 210.866C310.295 205.181 310.544 199.482 311.883 193.91C311.974 193.529 312.036 193.112 312.1 192.687C312.352 190.999 312.623 189.185 314.816 189.027C316.74 188.889 317.318 190.456 317.863 191.936C318.025 192.376 318.185 192.809 318.376 193.187C324.256 204.805 332.423 214.531 342.882 222.213C349.628 227.168 357.716 226.17 363.753 220.22C366.453 217.559 366.383 216.876 363.344 214.708C360.048 212.356 357.001 209.748 354.291 206.694C346.142 197.512 340.762 186.71 335.38 175.906C334.091 173.319 332.803 170.732 331.476 168.167C330.582 166.438 331.398 165.151 332.293 163.738L332.344 163.657C338.368 154.143 346.186 146.186 354.383 138.618C355.057 137.995 355.727 137.365 356.397 136.734C360.486 132.887 364.6 129.016 369.915 126.713C371.727 125.928 371.568 124.292 370.702 122.8C369.489 120.708 367.441 119.899 365.189 119.773C358.881 119.419 353.039 120.801 347.926 124.714C340.352 130.511 333.576 137.177 326.834 143.886C326.525 144.193 326.218 144.504 325.912 144.814C324.454 146.293 322.994 147.773 321.235 148.92C319.106 150.308 317.641 149.708 317.098 147.329C316.112 143.007 326.994 118.243 332.705 105.245C334.246 101.739 335.411 99.0881 335.865 97.9265C336.239 96.9685 336.616 96.0122 336.997 95.0574C339.532 95.5287 342.017 95.7111 344.503 95.8796C344.827 95.9015 345.16 95.8651 345.483 95.8177C366.606 92.7235 391.672 80.4198 401.44 61.1176C404.713 54.6512 406.959 47.8198 409.205 40.9882C410.094 38.2848 410.983 35.5797 411.936 32.8988C415.907 21.7203 420.86 11.2522 431.496 4.69712C431.78 4.52221 432.003 4.24763 432.253 3.93808C432.379 3.78216 432.513 3.61731 432.665 3.45191C431.192 2.16424 429.507 1.97554 427.69 1.77203C426.772 1.66926 425.82 1.5627 424.845 1.30891C424.435 1.24509 424.025 1.16956 423.615 1.09403C422.733 0.931402 421.85 0.768774 420.962 0.723065C406.129 -0.0401199 391.476 1.09412 377.114 5.07087C364.469 8.57235 351.872 15.2396 341.712 23.8021C323.442 39.2004 322.097 58.2017 321.268 69.9166L321.235 70.3925C320.647 78.6718 323.703 84.275 326.394 89.2086C327.411 91.0739 328.377 92.8435 329.073 94.6259C319.111 114.722 309.389 137.231 306.446 148.857C305.817 147.727 305.237 146.578 304.661 145.436C302.224 140.604 299.854 135.907 294.093 133.422C293.891 134.45 293.675 135.431 293.465 136.382C293.029 138.352 292.622 140.196 292.432 142.061C290.795 158.091 286.648 173.386 279.116 187.672C275.123 195.245 270.591 202.481 263.424 207.558C259.744 210.165 257.445 209.028 257.22 204.509C256.867 197.403 257.255 190.312 258.137 183.256C258.849 177.56 259.644 171.874 260.439 166.188C261.865 155.988 263.291 145.788 264.241 135.528C264.719 130.363 262.263 127.75 256.964 127.749C252.711 127.748 248.812 129.09 245.061 130.994C242.128 132.483 240.377 134.686 239.829 138.032C239.427 140.487 238.689 142.936 237.757 145.25C230.526 163.214 221.748 180.436 212.416 197.382C211.366 199.288 210.086 201.087 208.396 202.528C207.447 203.338 206.419 204.005 205.13 203.417C203.897 202.855 203.479 201.719 203.424 200.455C203.377 199.365 203.355 198.265 203.436 197.178C204.298 185.718 206.582 174.501 209.315 163.367C210.011 160.533 210.744 157.707 211.476 154.881C212.661 150.308 213.847 145.734 214.877 141.126C216.525 133.755 214.23 129.363 208.242 128.001C206.361 127.574 204.264 127.441 202.38 127.789C201.773 127.901 201.193 128.007 200.64 128.107C191.035 129.853 189.368 130.156 186.06 139.941C183.995 146.048 182.338 152.276 180.68 158.504C178.688 165.989 176.696 173.475 173.996 180.753C168.846 194.638 161.919 207.413 151.153 217.818C145.781 223.01 142.269 221.959 140.231 214.895C138.645 209.398 137.851 203.782 137.344 198.141C136.189 185.304 136.709 172.747 144.907 161.814C145.578 160.919 146.172 159.967 146.767 159.015C146.984 158.667 147.201 158.319 147.422 157.975C161.832 135.466 174.033 112.062 177.549 85.0374C178.514 77.6185 178.783 70.2282 177.833 62.8222C177.26 58.353 175.713 54.3074 171.503 51.8914C164.375 47.8004 154.671 47.8617 148.176 54.3278C143.898 58.5869 140.12 63.2726 137.15 68.5365C128.817 83.3097 123.452 99.2221 119.638 115.659C116.948 127.247 115.288 139.009 113.994 150.859C112.434 165.157 112.347 179.443 113.376 193.704C113.922 201.261 114.803 208.951 118.031 216.581ZM339.393 94.3758C338.616 94.5497 337.84 94.7237 337.062 94.8928C339.449 88.9104 341.958 82.9893 344.614 77.109C348.429 68.6611 361.017 66.0113 370.53 64.1138C370.561 64.1078 370.592 64.1017 370.623 64.0957L370.687 64.0835C371.465 63.9343 372.551 63.7263 372.638 62.494C369.39 61.2072 359.022 59.6828 355.217 59.7031C357.675 55.0025 360.676 51.2512 363.616 47.5763C364.414 46.5795 365.208 45.5862 365.985 44.5833C368.369 41.5023 373.494 40.0915 378.317 38.7637C381.251 37.9559 384.073 37.1789 386.099 36.0752C384.811 35.2987 382.343 35.4773 379.968 35.6492C377.844 35.8029 375.794 35.9513 374.729 35.4058C375.599 33.3614 377.147 32.0328 378.661 30.7325C379.185 30.2831 379.704 29.8372 380.19 29.3662C382.226 27.3943 384.425 25.5814 386.636 23.8021C386.948 23.5512 387.262 23.3035 387.576 23.056C389.298 21.6993 391.013 20.3479 392.259 18.4985C374.304 28.8299 360.317 43.2676 348.441 60.0468C343.489 67.0446 336.277 80.1064 329.176 94.4177C328.892 91.9722 328.229 90.123 327.52 88.1457C326.168 84.3723 324.647 80.1324 325.276 70.3925C326.714 58.8353 329.52 44.4701 336.667 35.0722C343.309 26.3373 351.775 19.9607 361.653 15.4192C375.533 9.0376 389.092 5.24948 404.525 5.88841C407.106 5.99525 408.958 7.12826 410.769 8.95213C414.17 12.3764 413.002 15.4792 411.515 19.4276C411.394 19.7487 411.271 20.0754 411.148 20.4084C409.416 25.101 407.799 29.8347 406.181 34.5671C404.374 39.8558 402.566 45.1452 400.601 50.372C392.206 72.7068 369.302 88.7765 345.381 93.1195C343.376 93.4835 341.383 93.9301 339.393 94.3758ZM4.18824 172.491C3.89583 175.234 3.59619 177.976 3.29655 180.718C2.62374 186.876 1.95094 193.033 1.35994 199.199C0.210325 211.192 0.0193785 223.186 1.99967 235.126C2.7853 239.864 4.79829 241.194 9.52344 240.342C15.0331 239.349 20.1989 237.32 25.362 235.292C26.5994 234.805 27.8367 234.319 29.0785 233.848C31.5476 232.91 32.7839 230.983 32.7804 228.226C32.7769 225.501 32.8462 222.759 33.1407 220.052C34.5331 207.252 35.9649 194.455 37.4888 181.67C37.6971 179.922 37.7318 178.16 37.7665 176.399C37.8222 173.569 37.8779 170.741 38.6539 167.978C39.6741 164.345 41.2414 161.047 45.544 160.603C55.3074 159.595 64.0911 155.951 72.5394 151.175C88.1636 142.343 99.6875 130.012 105.585 112.856C108.283 105.007 110.032 96.8417 107.652 88.7333C102.597 71.5152 90.777 61.118 73.477 56.804C61.9799 53.9371 50.2954 54.0378 38.6193 55.0374C31.8812 55.6142 25.1545 56.5891 18.6923 58.7741C13.1547 60.6465 7.83177 62.8355 4.31433 67.9345C2.01032 71.2745 3.05628 74.1633 7.0975 74.7332C9.01771 75.0041 11.0345 74.8584 12.9782 74.6403C17.1141 74.1762 17.7519 74.9459 16.8382 79.1215C15.9987 82.9578 15.3048 86.8318 14.7049 90.7135C14.3739 92.8557 14.0389 94.9972 13.7039 97.1387C11.9639 108.261 10.2241 119.382 9.04081 130.589C8.12014 139.309 7.08226 148.016 6.02666 156.872C5.41334 162.017 4.79401 167.213 4.18824 172.491ZM189.496 349.837C190.665 342.936 191.835 336.03 192.692 329.091C194.916 311.078 198.387 293.306 202.241 275.595C203.102 271.638 204.027 267.694 204.951 263.751C205.447 261.635 205.943 259.52 206.429 257.403C207.284 253.678 206.66 250.228 204.348 247.156C204.305 247.099 204.262 247.041 204.218 246.982C203.542 246.072 202.738 244.991 201.425 245.865C201.122 246.067 200.818 246.268 200.514 246.469C195.631 249.702 190.762 252.926 188.57 258.912C184.5 270.028 181.643 281.482 179.605 293.085C177.269 306.376 175.165 319.709 173.06 333.041C171.93 340.195 170.8 347.357 169.635 354.505C169.569 354.911 169.537 355.37 169.505 355.842C169.386 357.593 169.255 359.523 167.28 359.607C165.472 359.684 165.194 357.76 164.951 356.077C164.888 355.642 164.828 355.223 164.744 354.858C162.824 346.547 160.947 338.227 159.069 329.906C156.551 318.747 154.031 307.581 151.412 296.446C149.038 286.35 146.382 276.285 142.275 266.727C138.107 257.028 127.839 252.077 118.429 254.682C112.866 256.222 110.158 260.49 107.903 265.196C98.8835 284.019 94.5802 304.27 90.2846 324.485L90.2355 324.716C87.2402 338.812 84.8512 353.038 83.8609 367.445C83.7615 368.891 83.6215 370.336 83.4814 371.782C83.0321 376.42 82.5822 381.062 83.4732 385.726L83.4854 385.789C83.7948 387.41 84.1772 389.413 85.9965 389.583C90.6082 390.012 91.8919 393.101 92.6109 396.862C93.0186 398.995 94.3543 399.68 96.4162 399.506C103.962 398.868 105.344 397.584 106.29 390.167C106.306 390.04 106.321 389.914 106.336 389.787C106.386 389.371 106.435 388.954 106.525 388.546C109.054 377.014 110.928 365.366 112.802 353.718C113.596 348.782 114.39 343.845 115.233 338.918C117.979 322.886 121.098 306.942 124.711 291.09C124.743 290.949 124.774 290.802 124.806 290.651C125.07 289.389 125.382 287.899 126.934 287.843C128.639 287.781 129.001 289.243 129.327 290.562C129.378 290.766 129.427 290.966 129.481 291.156C132.195 300.827 133.79 310.724 135.385 320.622L135.392 320.659C135.756 322.918 136.107 325.18 136.459 327.443C137.43 333.697 138.402 339.952 139.644 346.153C141.765 356.74 144.229 367.261 146.711 377.772L146.741 377.901C148.462 385.189 150.194 392.523 154.597 398.809C156.966 402.192 160.109 404.338 164.428 404.452C172.51 404.664 175.858 402.388 179.104 394.579C183.545 383.893 185.553 372.61 187.647 360.839C187.746 360.281 187.846 359.723 187.946 359.163C188.444 356.052 188.97 352.944 189.496 349.837ZM236.221 329.023C237.377 324.898 238.534 320.767 238.717 316.442C238.836 313.636 237.555 311.617 235.092 310.344C228.157 306.758 218.449 310.256 215.702 317.499C214 321.987 212.535 326.576 211.201 331.188C207.09 345.406 204.017 359.783 204.945 374.739C205.137 377.843 205.846 380.786 207.079 383.603C211.232 393.085 223.891 396.53 231.953 390.033C238.943 384.399 244.142 377.255 247.204 368.713L247.254 368.574C247.699 367.327 248.132 366.113 249.66 366.028C251.229 365.941 251.911 367.223 252.501 368.393C253.441 370.254 253.547 372.283 253.655 374.335L253.661 374.45C253.96 380.101 254.803 385.443 259.691 389.409C266.025 394.547 276.447 395.297 282.853 389.249C283.121 388.997 283.389 388.745 283.656 388.493C285.702 386.571 287.744 384.653 289.504 382.478C296.51 373.822 305.084 361.752 307.478 350.697C308.101 347.82 308.666 344.765 306.7 341.81C304.497 343.807 303.233 346.2 301.995 348.546C301.707 349.092 301.42 349.636 301.123 350.171C296.349 358.773 288.986 370.23 282.23 377.511C281.97 377.791 281.711 378.099 281.447 378.412C280.128 379.979 278.684 381.693 276.369 380.877C273.833 379.984 273.796 377.494 273.762 375.286C273.757 374.959 273.753 374.639 273.74 374.331C273.289 363.481 274.473 352.758 276.392 342.078C276.657 340.602 276.929 339.128 277.202 337.652C278.495 330.65 279.789 323.641 280.32 316.526C280.651 312.093 278.485 309.792 274.026 309.602C272.728 309.547 271.397 309.655 270.116 309.884C264.157 310.951 262.005 315.659 260.121 320.546C255.244 333.201 249.611 345.511 243.283 357.502C240.528 362.722 237.732 367.93 233.892 372.466C232.904 373.633 231.679 374.837 229.966 374.141C228.43 373.518 228.353 371.955 228.292 370.503C228.053 364.78 229.006 359.154 230.152 353.615C231.232 348.396 232.558 343.228 233.929 337.882C234.522 335.574 235.123 333.231 235.716 330.837C235.882 330.232 236.052 329.627 236.221 329.023ZM69.5838 93.7623C69.7907 82.5146 64.8641 74.426 53.8781 70.0559C50.3129 68.9896 46.9267 68.727 43.4877 68.9675C41.0508 69.138 39.7405 70.3815 39.2539 72.7925C38.9024 74.5344 38.8131 76.2625 38.7667 78.0123C38.5521 86.1223 37.5787 94.1503 36.3233 102.162L36.2011 102.943C34.2087 115.655 32.2151 128.374 31.4666 141.235C31.4342 141.792 31.2942 142.398 31.1522 143.012C30.7696 144.669 30.3727 146.387 32.03 147.375C34.0519 148.581 36.15 147.219 37.9527 146.048L38.0224 146.002C38.2519 145.853 38.4766 145.708 38.6955 145.572C57.9813 133.608 69.1601 116.788 69.5838 93.7623ZM152.184 65.4904C155.738 64.7684 155.875 67.1915 155.984 69.1289C155.997 69.353 156.009 69.5705 156.026 69.776C156.519 75.6703 156.369 81.5799 155.493 87.4617C152.454 107.872 144.418 126.518 135.37 144.797C135.229 145.081 135.096 145.402 134.959 145.734C134.35 147.203 133.654 148.886 131.825 148.492C129.962 148.09 130.151 146.473 130.325 144.981C130.379 144.522 130.431 144.074 130.421 143.677C130.19 134.089 132.432 124.854 134.666 115.657C134.829 114.983 134.993 114.31 135.155 113.636C138.464 99.9242 142.112 86.2875 147.612 73.2496C147.675 73.1008 147.737 72.9517 147.8 72.8025C148.874 70.2449 149.97 67.6369 152.184 65.4904Z" fill="#184D36"/>
<path d="M37.9527 146.048C36.15 147.219 34.0519 148.581 32.03 147.375C30.3727 146.387 30.7696 144.669 31.1522 143.012C31.2942 142.398 31.4342 141.792 31.4666 141.235C32.2151 128.374 34.2087 115.655 36.2011 102.943L36.3233 102.162C37.5787 94.1503 38.5521 86.1223 38.7667 78.0123C38.8131 76.2625 38.9024 74.5344 39.2539 72.7925C39.7405 70.3815 41.0508 69.138 43.4877 68.9675C46.9267 68.727 50.3129 68.9896 53.8781 70.0559C64.8641 74.426 69.7907 82.5146 69.5838 93.7623C69.1601 116.788 57.9813 133.608 38.6955 145.572C38.4766 145.708 38.2519 145.853 38.0224 146.002M37.9527 146.048L38.0224 146.002M37.9527 146.048L37.9555 146.046C37.9704 146.036 37.9853 146.026 38.0002 146.017C38.0076 146.012 38.015 146.007 38.0224 146.002M118.031 216.581C122.967 234.021 146.246 236.444 156.716 226.275C159.852 223.228 162.943 220.16 165.554 216.606C165.91 216.121 166.263 215.632 166.617 215.142C168.567 212.442 170.529 209.725 173.092 207.551C175.213 205.751 176.526 206.303 177.319 208.932C179.376 215.75 183.781 220.949 190.445 222.913C200.295 225.818 205.985 223.437 213.202 215.62C217.973 210.451 221.4 204.417 224.829 198.38C225.553 197.105 226.277 195.831 227.014 194.564C227.833 193.155 228.828 191.471 230.73 191.884C232.613 192.293 232.893 194.234 233.066 195.85C233.25 197.564 233.364 199.284 233.477 201.005C233.572 202.445 233.667 203.886 233.803 205.322C234.556 213.252 238.25 219.467 245.767 222.326C253.646 225.321 261.39 224.926 268.109 218.772C273.386 213.938 277.936 208.527 281.982 202.656C282.062 202.54 282.142 202.419 282.223 202.295C282.812 201.397 283.459 200.411 284.737 200.767C286.22 201.181 286.204 202.536 286.189 203.729C286.188 203.845 286.187 203.96 286.187 204.072C286.187 206.511 286.157 208.95 286.128 211.389C286.094 214.196 286.059 217.003 286.071 219.81L286.074 220.577C286.089 224.906 286.105 229.241 286.739 233.538C286.99 235.235 287.739 236.794 289.471 237.336C289.471 237.336 297.383 240.794 302.124 241.348C306.866 241.902 307.842 239.817 308.315 235.319C309.011 228.694 309.447 222.05 309.828 215.395C309.915 213.888 309.981 212.377 310.047 210.866C310.295 205.181 310.544 199.482 311.883 193.91C311.974 193.529 312.036 193.112 312.1 192.687C312.352 190.999 312.623 189.185 314.816 189.027C316.74 188.889 317.318 190.456 317.863 191.936C318.025 192.376 318.185 192.809 318.376 193.187C324.256 204.805 332.423 214.531 342.882 222.213C349.628 227.168 357.716 226.17 363.753 220.22C366.453 217.559 366.383 216.876 363.344 214.708C360.048 212.356 357.001 209.748 354.291 206.694C346.142 197.512 340.762 186.71 335.38 175.906C334.091 173.319 332.803 170.732 331.476 168.167C330.582 166.438 331.398 165.151 332.293 163.738L332.344 163.657C338.368 154.143 346.186 146.186 354.383 138.618C355.057 137.995 355.727 137.365 356.397 136.734C360.486 132.887 364.6 129.016 369.915 126.713C371.727 125.928 371.568 124.292 370.702 122.8C369.489 120.708 367.441 119.899 365.189 119.773C358.881 119.419 353.039 120.801 347.926 124.714C340.352 130.511 333.576 137.177 326.834 143.886C326.525 144.193 326.218 144.504 325.912 144.814C324.454 146.293 322.994 147.773 321.235 148.92C319.106 150.308 317.641 149.708 317.098 147.329C316.112 143.007 326.994 118.243 332.705 105.245C334.246 101.739 335.411 99.0881 335.865 97.9265C336.239 96.9685 336.616 96.0122 336.997 95.0574C339.532 95.5287 342.017 95.7111 344.503 95.8796C344.827 95.9015 345.16 95.8651 345.483 95.8177C366.606 92.7235 391.672 80.4198 401.44 61.1176C404.713 54.6512 406.959 47.8198 409.205 40.9882C410.094 38.2848 410.983 35.5797 411.936 32.8988C415.907 21.7203 420.86 11.2522 431.496 4.69712C431.78 4.52221 432.003 4.24763 432.253 3.93808C432.379 3.78216 432.513 3.61731 432.665 3.45191C431.192 2.16424 429.507 1.97554 427.69 1.77203C426.772 1.66926 425.82 1.5627 424.845 1.30891C424.435 1.24509 424.025 1.16956 423.615 1.09403C422.733 0.931402 421.85 0.768774 420.962 0.723065C406.129 -0.0401199 391.476 1.09412 377.114 5.07087C364.469 8.57235 351.872 15.2396 341.712 23.8021C323.442 39.2004 322.097 58.2017 321.268 69.9166L321.235 70.3925C320.647 78.6718 323.703 84.275 326.394 89.2086C327.411 91.0739 328.377 92.8435 329.073 94.6259C319.111 114.722 309.389 137.231 306.446 148.857C305.817 147.727 305.237 146.578 304.661 145.436C302.224 140.604 299.854 135.907 294.093 133.422C293.891 134.45 293.675 135.431 293.465 136.382C293.029 138.352 292.622 140.196 292.432 142.061C290.795 158.091 286.648 173.386 279.116 187.672C275.123 195.245 270.591 202.481 263.424 207.558C259.744 210.165 257.445 209.028 257.22 204.509C256.867 197.403 257.255 190.312 258.137 183.256C258.849 177.56 259.644 171.874 260.439 166.188C261.865 155.988 263.291 145.788 264.241 135.528C264.719 130.363 262.263 127.75 256.964 127.749C252.711 127.748 248.812 129.09 245.061 130.994C242.128 132.483 240.377 134.686 239.829 138.032C239.427 140.487 238.689 142.936 237.757 145.25C230.526 163.214 221.748 180.436 212.416 197.382C211.366 199.288 210.086 201.087 208.396 202.528C207.447 203.338 206.419 204.005 205.13 203.417C203.897 202.855 203.479 201.719 203.424 200.455C203.377 199.365 203.355 198.265 203.436 197.178C204.298 185.718 206.582 174.501 209.315 163.367C210.011 160.533 210.744 157.707 211.476 154.881C212.661 150.308 213.847 145.734 214.877 141.126C216.525 133.755 214.23 129.363 208.242 128.001C206.361 127.574 204.264 127.441 202.38 127.789C201.773 127.901 201.193 128.007 200.64 128.107C191.035 129.853 189.368 130.156 186.06 139.941C183.995 146.048 182.338 152.276 180.68 158.504C178.688 165.989 176.696 173.475 173.996 180.753C168.846 194.638 161.919 207.413 151.153 217.818C145.781 223.01 142.269 221.959 140.231 214.895C138.645 209.398 137.851 203.782 137.344 198.141C136.189 185.304 136.709 172.747 144.907 161.814C145.578 160.919 146.172 159.967 146.767 159.015C146.984 158.667 147.201 158.319 147.422 157.975C161.832 135.466 174.033 112.062 177.549 85.0374C178.514 77.6185 178.783 70.2282 177.833 62.8222C177.26 58.353 175.713 54.3074 171.503 51.8914C164.375 47.8004 154.671 47.8617 148.176 54.3278C143.898 58.5869 140.12 63.2726 137.15 68.5365C128.817 83.3097 123.452 99.2221 119.638 115.659C116.948 127.247 115.288 139.009 113.994 150.859C112.434 165.157 112.347 179.443 113.376 193.704C113.922 201.261 114.803 208.951 118.031 216.581ZM339.393 94.3758C338.616 94.5497 337.84 94.7237 337.062 94.8928C339.449 88.9104 341.958 82.9893 344.614 77.109C348.429 68.6611 361.017 66.0113 370.53 64.1138C370.561 64.1078 370.592 64.1017 370.623 64.0957L370.687 64.0835C371.465 63.9343 372.551 63.7263 372.638 62.494C369.39 61.2072 359.022 59.6828 355.217 59.7031C357.675 55.0025 360.676 51.2512 363.616 47.5763C364.414 46.5795 365.208 45.5862 365.985 44.5833C368.369 41.5023 373.494 40.0915 378.317 38.7637C381.251 37.9559 384.073 37.1789 386.099 36.0752C384.811 35.2987 382.343 35.4773 379.968 35.6492C377.844 35.8029 375.794 35.9513 374.729 35.4058C375.599 33.3614 377.147 32.0328 378.661 30.7325C379.185 30.2831 379.704 29.8372 380.19 29.3662C382.226 27.3943 384.425 25.5814 386.636 23.8021C386.948 23.5512 387.262 23.3035 387.576 23.056C389.298 21.6993 391.013 20.3479 392.259 18.4985C374.304 28.8299 360.317 43.2676 348.441 60.0468C343.489 67.0446 336.277 80.1064 329.176 94.4177C328.892 91.9722 328.229 90.123 327.52 88.1457C326.168 84.3723 324.647 80.1324 325.276 70.3925C326.714 58.8353 329.52 44.4701 336.667 35.0722C343.309 26.3373 351.775 19.9607 361.653 15.4192C375.533 9.0376 389.092 5.24948 404.525 5.88841C407.106 5.99525 408.958 7.12826 410.769 8.95213C414.17 12.3764 413.002 15.4792 411.515 19.4276C411.394 19.7487 411.271 20.0754 411.148 20.4084C409.416 25.101 407.799 29.8347 406.181 34.5671C404.374 39.8558 402.566 45.1452 400.601 50.372C392.206 72.7068 369.302 88.7765 345.381 93.1195C343.376 93.4835 341.383 93.9301 339.393 94.3758ZM4.18824 172.491C3.89583 175.234 3.59619 177.976 3.29655 180.718C2.62374 186.876 1.95094 193.033 1.35994 199.199C0.210325 211.192 0.0193785 223.186 1.99967 235.126C2.7853 239.864 4.79829 241.194 9.52344 240.342C15.0331 239.349 20.1989 237.32 25.362 235.292C26.5994 234.805 27.8367 234.319 29.0785 233.848C31.5476 232.91 32.7839 230.983 32.7804 228.226C32.7769 225.501 32.8462 222.759 33.1407 220.052C34.5331 207.252 35.9649 194.455 37.4888 181.67C37.6971 179.922 37.7318 178.16 37.7665 176.399C37.8222 173.569 37.8779 170.741 38.6539 167.978C39.6741 164.345 41.2414 161.047 45.544 160.603C55.3074 159.595 64.0911 155.951 72.5394 151.175C88.1636 142.343 99.6875 130.012 105.585 112.856C108.283 105.007 110.032 96.8417 107.652 88.7333C102.597 71.5152 90.777 61.118 73.477 56.804C61.9799 53.9371 50.2954 54.0378 38.6193 55.0374C31.8812 55.6142 25.1545 56.5891 18.6923 58.7741C13.1547 60.6465 7.83177 62.8355 4.31433 67.9345C2.01032 71.2745 3.05628 74.1633 7.0975 74.7332C9.01771 75.0041 11.0345 74.8584 12.9782 74.6403C17.1141 74.1762 17.7519 74.9459 16.8382 79.1215C15.9987 82.9578 15.3048 86.8318 14.7049 90.7135C14.3739 92.8557 14.0389 94.9972 13.7039 97.1387C11.9639 108.261 10.2241 119.382 9.04081 130.589C8.12014 139.309 7.08226 148.016 6.02666 156.872C5.41334 162.017 4.79401 167.213 4.18824 172.491ZM189.496 349.837C190.665 342.936 191.835 336.03 192.692 329.091C194.916 311.078 198.387 293.306 202.241 275.595C203.102 271.638 204.027 267.694 204.951 263.751C205.447 261.635 205.943 259.52 206.429 257.403C207.284 253.678 206.66 250.228 204.348 247.156C204.305 247.099 204.262 247.041 204.218 246.982C203.542 246.072 202.738 244.991 201.425 245.865C201.122 246.067 200.818 246.268 200.514 246.469C195.631 249.702 190.762 252.926 188.57 258.912C184.5 270.028 181.643 281.482 179.605 293.085C177.269 306.376 175.165 319.709 173.06 333.041C171.93 340.195 170.8 347.357 169.635 354.505C169.569 354.911 169.537 355.37 169.505 355.842C169.386 357.593 169.255 359.523 167.28 359.607C165.472 359.684 165.194 357.76 164.951 356.077C164.888 355.642 164.828 355.223 164.744 354.858C162.824 346.547 160.947 338.227 159.069 329.906C156.551 318.747 154.031 307.581 151.412 296.446C149.038 286.35 146.382 276.285 142.275 266.727C138.107 257.028 127.839 252.077 118.429 254.682C112.866 256.222 110.158 260.49 107.903 265.196C98.8835 284.019 94.5802 304.27 90.2846 324.485L90.2355 324.716C87.2402 338.812 84.8512 353.038 83.8609 367.445C83.7615 368.891 83.6215 370.336 83.4814 371.782C83.0321 376.42 82.5822 381.062 83.4732 385.726L83.4854 385.789C83.7948 387.41 84.1772 389.413 85.9965 389.583C90.6082 390.012 91.8919 393.101 92.6109 396.862C93.0186 398.995 94.3543 399.68 96.4162 399.506C103.962 398.868 105.344 397.584 106.29 390.167C106.306 390.04 106.321 389.914 106.336 389.787C106.386 389.371 106.435 388.954 106.525 388.546C109.054 377.014 110.928 365.366 112.802 353.718C113.596 348.782 114.39 343.845 115.233 338.918C117.979 322.886 121.098 306.942 124.711 291.09C124.743 290.949 124.774 290.802 124.806 290.651C125.07 289.389 125.382 287.899 126.934 287.843C128.639 287.781 129.001 289.243 129.327 290.562C129.378 290.766 129.427 290.966 129.481 291.156C132.195 300.827 133.79 310.724 135.385 320.622L135.392 320.659C135.756 322.918 136.107 325.18 136.459 327.443C137.43 333.697 138.402 339.952 139.644 346.153C141.765 356.74 144.229 367.261 146.711 377.772L146.741 377.901C148.462 385.189 150.194 392.523 154.597 398.809C156.966 402.192 160.109 404.338 164.428 404.452C172.51 404.664 175.858 402.388 179.104 394.579C183.545 383.893 185.553 372.61 187.647 360.839C187.746 360.281 187.846 359.723 187.946 359.163C188.444 356.052 188.97 352.944 189.496 349.837ZM236.221 329.023C237.377 324.898 238.534 320.767 238.717 316.442C238.836 313.636 237.555 311.617 235.092 310.344C228.157 306.758 218.449 310.256 215.702 317.499C214 321.987 212.535 326.576 211.201 331.188C207.09 345.406 204.017 359.783 204.945 374.739C205.137 377.843 205.846 380.786 207.079 383.603C211.232 393.085 223.891 396.53 231.953 390.033C238.943 384.399 244.142 377.255 247.204 368.713L247.254 368.574C247.699 367.327 248.132 366.113 249.66 366.028C251.229 365.941 251.911 367.223 252.501 368.393C253.441 370.254 253.547 372.283 253.655 374.335L253.661 374.45C253.96 380.101 254.803 385.443 259.691 389.409C266.025 394.547 276.447 395.297 282.853 389.249C283.121 388.997 283.389 388.745 283.656 388.493C285.702 386.571 287.744 384.653 289.504 382.478C296.51 373.822 305.084 361.752 307.478 350.697C308.101 347.82 308.666 344.765 306.7 341.81C304.497 343.807 303.233 346.2 301.995 348.546C301.707 349.092 301.42 349.636 301.123 350.171C296.349 358.773 288.986 370.23 282.23 377.511C281.97 377.791 281.711 378.099 281.447 378.412C280.128 379.979 278.684 381.693 276.369 380.877C273.833 379.984 273.796 377.494 273.762 375.286C273.757 374.959 273.753 374.639 273.74 374.331C273.289 363.481 274.473 352.758 276.392 342.078C276.657 340.602 276.929 339.128 277.202 337.652C278.495 330.65 279.789 323.641 280.32 316.526C280.651 312.093 278.485 309.792 274.026 309.602C272.728 309.547 271.397 309.655 270.116 309.884C264.157 310.951 262.005 315.659 260.121 320.546C255.244 333.201 249.611 345.511 243.283 357.502C240.528 362.722 237.732 367.93 233.892 372.466C232.904 373.633 231.679 374.837 229.966 374.141C228.43 373.518 228.353 371.955 228.292 370.503C228.053 364.78 229.006 359.154 230.152 353.615C231.232 348.396 232.558 343.228 233.929 337.882C234.522 335.574 235.123 333.231 235.716 330.837C235.882 330.232 236.052 329.627 236.221 329.023ZM152.184 65.4904C155.738 64.7684 155.875 67.1915 155.984 69.1289C155.997 69.353 156.009 69.5705 156.026 69.776C156.519 75.6703 156.369 81.5799 155.493 87.4617C152.454 107.872 144.418 126.518 135.37 144.797C135.229 145.081 135.096 145.402 134.959 145.734C134.35 147.203 133.654 148.886 131.825 148.492C129.962 148.09 130.151 146.473 130.325 144.981C130.379 144.522 130.431 144.074 130.421 143.677C130.19 134.089 132.432 124.854 134.666 115.657C134.829 114.983 134.993 114.31 135.155 113.636C138.464 99.9242 142.112 86.2875 147.612 73.2496C147.675 73.1008 147.737 72.9517 147.8 72.8025C148.874 70.2449 149.97 67.6369 152.184 65.4904Z" stroke="#184D36"/>
<path fill-rule="evenodd" clip-rule="evenodd" d="M249.413 66.0915C249.479 66.0951 249.546 66.0987 249.612 66.1022Z" fill="#F4F4EB"/>
<path d="M303.471 93.6998C299.256 81.5292 289.678 72.8542 278.299 67.1257C266.489 62.1568 247.663 58.8808 235.265 62.9987V64.8289C242.639 70.4566 245.698 76.0387 248.287 84.8326C248.649 86.0729 249.001 87.3714 249.362 88.7015C251.635 97.0864 257.004 109.056 264.652 113.328C274.066 118.517 282.551 119.203 293.121 118.819V117.904C291.793 117.679 290.439 117.472 289.073 117.262C281.801 116.147 274.418 115.134 268.326 111.105C267.888 110.758 268.752 111.448 268.326 111.105C268.225 111.024 268.326 111.105 266.489 109.668C263.659 107.41 261.817 105.94 260.337 104.169C257.578 100.866 256.082 96.5142 251.795 84.0456C249.747 77.8231 247.498 72.5705 243.686 67.1898C243.319 66.7048 242.961 66.2198 242.612 65.744C244.467 65.8355 246.313 65.927 248.168 66.0276C248.591 66.0472 249.003 66.0695 249.413 66.0915C249.767 66.1106 250.119 66.1296 250.473 66.1466C261.117 66.6682 270.677 68.3885 280.43 72.8908C289.971 78.0152 295.794 84.5855 299.43 94.7979C300.955 100.398 302.213 108.927 299.55 114.243C291.854 98.9066 279.319 84.4391 263.734 76.725L261.897 77.64C263.544 78.6356 264.665 79.3136 265.738 80.0602C268.029 81.6538 270.1 83.5604 276.591 89.5361H267.407V90.4512C276.747 92.8396 282.34 94.6789 287.611 103.262H275.673V104.177C279.64 104.946 283.506 105.88 287.382 107.042C291.891 109.631 293.709 112.944 295.61 117.73C295.739 118.062 295.863 118.391 295.986 118.718C296.09 118.995 296.194 119.269 296.299 119.542C296.776 120.786 297.245 122.031 297.713 123.284C298.503 125.618 299.329 127.585 300.468 129.8C301.847 130.543 302.453 130.87 303.094 131.102C303.598 131.285 304.123 131.409 305.06 131.63C305.06 129.68 305.06 128.769 304.929 127.876C304.815 127.094 304.6 126.327 304.197 124.886C303.324 121.912 302.59 119.157 302.305 116.074L304.197 107.799C304.775 100.991 304.886 100.407 303.471 93.6998Z" fill="#F4F4EB"/>
<path d="M249.413 66.0915C249.479 66.0951 249.546 66.0987 249.612 66.1022M249.413 66.0915C249.003 66.0695 248.591 66.0472 248.168 66.0276C246.313 65.927 244.467 65.8355 242.612 65.744C242.961 66.2198 243.319 66.7048 243.686 67.1898C247.498 72.5705 249.747 77.8231 251.795 84.0456C256.082 96.5142 257.578 100.866 260.337 104.169C261.817 105.94 263.659 107.41 266.489 109.668C268.326 111.105 268.225 111.024 268.326 111.105M249.413 66.0915C249.767 66.1106 250.119 66.1296 250.473 66.1466C261.117 66.6682 270.677 68.3885 280.43 72.8908C289.971 78.0152 295.794 84.5855 299.43 94.7979C300.955 100.398 302.213 108.927 299.55 114.243C291.854 98.9066 279.319 84.4391 263.734 76.725L261.897 77.64C263.544 78.6356 264.665 79.3136 265.738 80.0602C268.029 81.6538 270.1 83.5604 276.591 89.5361H267.407V90.4512C276.747 92.8396 282.34 94.6789 287.611 103.262H275.673V104.177C279.64 104.946 283.506 105.88 287.382 107.042C291.891 109.631 293.709 112.944 295.61 117.73C295.739 118.062 295.863 118.391 295.986 118.718C296.09 118.995 296.194 119.269 296.299 119.542C296.776 120.786 297.245 122.031 297.713 123.284C298.503 125.618 299.329 127.585 300.468 129.8C301.847 130.543 302.453 130.87 303.094 131.102C303.598 131.285 304.123 131.409 305.06 131.63C305.06 129.68 305.06 128.769 304.929 127.876C304.815 127.094 304.6 126.327 304.197 124.886C303.324 121.912 302.59 119.157 302.305 116.074L304.197 107.799C304.775 100.991 304.886 100.407 303.471 93.6998C299.256 81.5292 289.678 72.8542 278.299 67.1257C266.489 62.1568 247.663 58.8808 235.265 62.9987V64.8289C242.639 70.4566 245.698 76.0387 248.287 84.8326C248.649 86.0729 249.001 87.3714 249.362 88.7015C251.635 97.0864 257.004 109.056 264.652 113.328C274.066 118.517 282.551 119.203 293.121 118.819V117.904C291.793 117.679 290.439 117.472 289.073 117.262C281.801 116.147 274.418 115.134 268.326 111.105M268.326 111.105C268.752 111.448 267.888 110.758 268.326 111.105Z" stroke="#F4F4EB"/>
</svg>
